<?xml version="1.0" encoding="UTF-8"?>
<svg version="1.1" xmlns="http://www.w3.org/2000/svg" width="824" height="133">
<path d="M0 0 C2.828619 2.07986691 3.80121942 4.35755755 5.125 7.5625 C6.15560547 6.93021484 6.15560547 6.93021484 7.20703125 6.28515625 C8.10808594 5.73730469 9.00914062 5.18945312 9.9375 4.625 C10.83082031 4.07972656 11.72414062 3.53445312 12.64453125 2.97265625 C18.6939788 -0.4664785 25.35114503 -0.01433 32.125 0.5625 C34.81918371 1.56846139 35.95778307 2.56637915 38.125 4.5625 C39.45077487 5.5724994 40.78288452 6.57431793 42.125 7.5625 C43.03378906 6.94761719 43.03378906 6.94761719 43.9609375 6.3203125 C51.85670157 1.24272884 59.53939109 -1.55743004 69.01953125 -0.09765625 C72.89209797 1.11656226 75.7392993 3.30533868 78.125 6.5625 C81.62535099 13.81733853 81.53062921 20.47401905 81.453125 28.43359375 C81.45125183 29.75166519 81.44937866 31.06973663 81.44744873 32.42774963 C81.44287267 35.2005768 81.42854253 37.97310914 81.40625 40.74584961 C81.37777558 44.30586859 81.36701627 47.8656582 81.3625679 51.4257803 C81.35742849 54.82425368 81.34289682 58.22264768 81.328125 61.62109375 C81.32387512 62.90326279 81.31962524 64.18543182 81.31524658 65.50645447 C81.30563904 66.68180252 81.29603149 67.85715057 81.28613281 69.06811523 C81.27930481 70.10765854 81.27247681 71.14720184 81.26544189 72.21824646 C81.125 74.5625 81.125 74.5625 80.125 75.5625 C78.78232587 75.64881874 77.43525678 75.66956473 76.08984375 75.66015625 C75.28095703 75.65693359 74.47207031 75.65371094 73.63867188 75.65039062 C72.78853516 75.64201172 71.93839844 75.63363281 71.0625 75.625 C70.20849609 75.62048828 69.35449219 75.61597656 68.47460938 75.61132812 C66.35804337 75.59950373 64.24151315 75.58156769 62.125 75.5625 C60.87301789 73.05853578 60.9801365 71.32000761 60.95141602 68.51782227 C60.93792618 67.46655655 60.92443634 66.41529083 60.91053772 65.33216858 C60.89488014 63.62280373 60.89488014 63.62280373 60.87890625 61.87890625 C60.84597424 59.48372022 60.81276248 57.08853801 60.77929688 54.69335938 C60.73181306 50.90326526 60.68737788 47.11318741 60.64819336 43.32299805 C60.60857774 39.67480235 60.55701237 36.02692695 60.50390625 32.37890625 C60.4954921 31.24135391 60.48707794 30.10380157 60.47840881 28.93177795 C60.46176682 27.87736008 60.44512482 26.8229422 60.42797852 25.73657227 C60.41251732 24.34330467 60.41251732 24.34330467 60.39674377 22.92189026 C60.27581043 20.29487287 60.27581043 20.29487287 58.125 17.5625 C54.17594824 17.03089688 51.63785436 17.35639157 47.9387207 18.84301758 C44.73428314 21.94013081 44.66690772 22.60860835 44.36791992 26.8659668 C44.33369745 29.08095698 44.33160921 31.29659271 44.35546875 33.51171875 C44.33846672 35.26425713 44.33846672 35.26425713 44.32112122 37.05220032 C44.29035487 40.78525061 44.30025707 44.51686527 44.3125 48.25 C44.29835775 51.99338223 44.2760326 55.73661543 44.25032043 59.47993469 C44.23722179 61.81029567 44.2325553 64.1407213 44.23686218 66.47111511 C44.23628311 67.51922867 44.23570404 68.56734222 44.23510742 69.6472168 C44.23766037 70.57447067 44.24021332 71.50172455 44.24284363 72.45707703 C44.125 74.5625 44.125 74.5625 43.125 75.5625 C41.79456375 75.6608721 40.45906656 75.69328592 39.125 75.6953125 C38.320625 75.69660156 37.51625 75.69789062 36.6875 75.69921875 C35.841875 75.69535156 34.99625 75.69148438 34.125 75.6875 C33.279375 75.69136719 32.43375 75.69523437 31.5625 75.69921875 C30.758125 75.69792969 29.95375 75.69664063 29.125 75.6953125 C28.3825 75.69418457 27.64 75.69305664 26.875 75.69189453 C25.125 75.5625 25.125 75.5625 24.125 74.5625 C24.00761361 73.03493988 23.95773622 71.50211795 23.93554688 69.97021484 C23.91882935 68.99184662 23.90211182 68.01347839 23.8848877 67.00546265 C23.87131226 65.93889435 23.85773682 64.87232605 23.84375 63.7734375 C23.82534058 62.68165192 23.80693115 61.58986633 23.78796387 60.46499634 C23.72900566 56.95588762 23.67633116 53.44672807 23.625 49.9375 C23.55715334 45.34104749 23.48334643 40.74474302 23.40625 36.1484375 C23.39267456 35.09401459 23.37909912 34.03959167 23.3651123 32.95321655 C23.2775406 27.72914252 23.02003211 22.71255824 22.125 17.5625 C20.949375 17.48 19.77375 17.3975 18.5625 17.3125 C17.90121094 17.26609375 17.23992187 17.2196875 16.55859375 17.171875 C12.76822023 17.78028166 9.77413875 18.77103893 7.125 21.5625 C6.05812616 25.52372469 6.19530397 29.4305847 6.2578125 33.51171875 C6.24789276 34.68007767 6.23797302 35.84843658 6.22775269 37.05220032 C6.20258275 40.78550702 6.22503306 44.51672251 6.25 48.25 C6.24328843 51.99337871 6.22703849 55.73660045 6.20797729 59.47993469 C6.19962068 61.81031343 6.2005016 64.140746 6.21121216 66.47111511 C6.21386078 67.51922867 6.2165094 68.56734222 6.21923828 69.6472168 C6.22759201 71.03809761 6.22759201 71.03809761 6.2361145 72.45707703 C6.125 74.5625 6.125 74.5625 5.125 75.5625 C3.79456375 75.6608721 2.45906656 75.69328592 1.125 75.6953125 C0.320625 75.69660156 -0.48375 75.69789062 -1.3125 75.69921875 C-2.158125 75.69535156 -3.00375 75.69148438 -3.875 75.6875 C-4.720625 75.69136719 -5.56625 75.69523437 -6.4375 75.69921875 C-7.241875 75.69792969 -8.04625 75.69664063 -8.875 75.6953125 C-9.6175 75.69418457 -10.36 75.69305664 -11.125 75.69189453 C-12.875 75.5625 -12.875 75.5625 -13.875 74.5625 C-13.98786556 72.77484141 -14.031811 70.98278985 -14.04858398 69.19165039 C-14.06207382 68.04277847 -14.07556366 66.89390656 -14.08946228 65.71022034 C-14.09990067 64.45619919 -14.11033905 63.20217804 -14.12109375 61.91015625 C-14.14560531 59.94706926 -14.17012812 57.98398234 -14.19529057 56.02090359 C-14.25599011 51.17051824 -14.30635953 46.32003251 -14.35180664 41.46948242 C-14.3776211 38.75572741 -14.40851863 36.04211383 -14.44459534 33.32847595 C-14.47816647 30.77417513 -14.50419874 28.21976068 -14.52159119 25.66529846 C-14.61950519 18.7389419 -15.19660103 12.29173334 -16.875 5.5625 C-11.95313376 2.22833255 -6.04840986 -0.9204102 0 0 Z " fill="#14E9A5" transform="translate(208.875,42.4375)"/>
<path d="M0 0 C2.02755186 2.93995019 2 4.27704003 2 8 C2.88751953 7.38511719 2.88751953 7.38511719 3.79296875 6.7578125 C4.58316406 6.21898437 5.37335937 5.68015625 6.1875 5.125 C7.35345703 4.32449219 7.35345703 4.32449219 8.54296875 3.5078125 C15.43688605 -0.72279493 22.06240307 -0.74814132 30 0 C33.66983766 1.15952525 36.26626265 2.65970645 38.171875 6.140625 C38.44515625 6.75421875 38.7184375 7.3678125 39 8 C39.83144531 7.50628906 40.66289063 7.01257812 41.51953125 6.50390625 C42.60621094 5.86324219 43.69289063 5.22257812 44.8125 4.5625 C46.43091797 3.60537109 46.43091797 3.60537109 48.08203125 2.62890625 C52.64881046 0.0795797 56.12630223 -0.21503436 61.3125 -0.3125 C63.25576172 -0.36857422 63.25576172 -0.36857422 65.23828125 -0.42578125 C69.60377102 0.06833961 71.64387712 1.21471327 75 4 C76.42578125 5.82421875 76.42578125 5.82421875 77.3125 7.6875 C77.77076172 8.59048828 77.77076172 8.59048828 78.23828125 9.51171875 C80.58017493 17.16190478 80.14725378 25.52051904 80.1328125 33.4375 C80.13376923 34.59878418 80.13472595 35.76006836 80.13571167 36.95654297 C80.13638866 39.393718 80.1345681 41.83089489 80.13037109 44.26806641 C80.12497699 48.01599093 80.13035223 51.76379773 80.13671875 55.51171875 C80.13605865 57.88281277 80.13477889 60.25390671 80.1328125 62.625 C80.13483673 63.75091553 80.13686096 64.87683105 80.13894653 66.03686523 C80.13421829 67.58482788 80.13421829 67.58482788 80.12939453 69.1640625 C80.12859894 70.07623535 80.12780334 70.9884082 80.12698364 71.92822266 C80 74 80 74 79 75 C77.66956375 75.0983721 76.33406656 75.13078592 75 75.1328125 C74.195625 75.13410156 73.39125 75.13539062 72.5625 75.13671875 C71.716875 75.13285156 70.87125 75.12898438 70 75.125 C69.154375 75.12886719 68.30875 75.13273437 67.4375 75.13671875 C66.633125 75.13542969 65.82875 75.13414063 65 75.1328125 C64.2575 75.13168457 63.515 75.13055664 62.75 75.12939453 C61 75 61 75 60 74 C59.88251421 72.43648518 59.83272286 70.86781467 59.81054688 69.30004883 C59.79382935 68.29843216 59.77711182 67.29681549 59.7598877 66.2648468 C59.74631226 65.17326767 59.73273682 64.08168854 59.71875 62.95703125 C59.70034058 61.84067795 59.68193115 60.72432465 59.66296387 59.57414246 C59.60400279 55.98698379 59.55131874 52.39977565 59.5 48.8125 C59.43223711 44.11057888 59.35845463 39.40880566 59.28125 34.70703125 C59.26767456 33.62557327 59.25409912 32.5441153 59.2401123 31.42988586 C59.15947095 26.52230101 59.02565715 21.82256101 58 17 C53.63706757 15.50024198 50.87608014 16.50363972 46.76953125 18.11328125 C44.81180846 18.97793133 44.81180846 18.97793133 43 21 C42.67574488 23.33721808 42.67574488 23.33721808 42.69702148 26.07641602 C42.68037949 27.13413712 42.66373749 28.19185822 42.64659119 29.28163147 C42.63817703 30.42748215 42.62976288 31.57333282 42.62109375 32.75390625 C42.60409927 33.92509506 42.5871048 35.09628387 42.56959534 36.30296326 C42.51631043 40.05608695 42.47609497 43.80919867 42.4375 47.5625 C42.39365172 51.31931502 42.34701054 55.07604157 42.29469299 58.83274841 C42.26260391 61.17420347 42.2357558 63.51573694 42.21446228 65.85731506 C42.20097244 66.911884 42.1874826 67.96645294 42.17358398 69.05297852 C42.16407211 69.9862648 42.15456024 70.91955109 42.14476013 71.88111877 C42 74 42 74 41 75 C39.66956375 75.0983721 38.33406656 75.13078592 37 75.1328125 C36.195625 75.13410156 35.39125 75.13539062 34.5625 75.13671875 C33.716875 75.13285156 32.87125 75.12898438 32 75.125 C31.154375 75.12886719 30.30875 75.13273437 29.4375 75.13671875 C28.633125 75.13542969 27.82875 75.13414063 27 75.1328125 C26.2575 75.13168457 25.515 75.13055664 24.75 75.12939453 C23 75 23 75 22 74 C21.89790734 72.33342784 21.8643019 70.66260489 21.8581543 68.99291992 C21.85111984 67.92478561 21.84408539 66.85665131 21.83683777 65.75614929 C21.83267349 64.59267471 21.82850922 63.42920013 21.82421875 62.23046875 C21.80102045 59.791007 21.77690311 57.35155384 21.75195312 54.91210938 C21.71680811 51.04738625 21.68748431 47.18297882 21.67407227 43.31811523 C21.65863083 39.60100617 21.61843999 35.88483206 21.57421875 32.16796875 C21.57612717 31.01056686 21.57803558 29.85316498 21.58000183 28.66069031 C21.56351089 27.58309952 21.54701996 26.50550873 21.5300293 25.39526367 C21.52416306 24.44785812 21.51829681 23.50045258 21.51225281 22.52433777 C21.11606096 19.37958271 21.11606096 19.37958271 17 16 C11.555 17.485 11.555 17.485 6 19 C5.97494385 20.66087646 5.9498877 22.32175293 5.92407227 24.03295898 C5.83020474 30.16992485 5.7299344 36.30677203 5.62768555 42.44360352 C5.5842582 45.10438265 5.5425891 47.76519107 5.50268555 50.42602539 C5.44517128 54.24113815 5.38142332 58.05610242 5.31640625 61.87109375 C5.29133751 63.66793861 5.29133751 63.66793861 5.26576233 65.50108337 C5.24581711 66.6021492 5.22587189 67.70321503 5.20532227 68.83764648 C5.18977798 69.81249496 5.1742337 70.78734344 5.15821838 71.79173279 C5 74 5 74 4 75 C2.66956375 75.0983721 1.33406656 75.13078592 0 75.1328125 C-0.804375 75.13410156 -1.60875 75.13539062 -2.4375 75.13671875 C-3.283125 75.13285156 -4.12875 75.12898438 -5 75.125 C-5.845625 75.12886719 -6.69125 75.13273437 -7.5625 75.13671875 C-8.366875 75.13542969 -9.17125 75.13414063 -10 75.1328125 C-10.7425 75.13168457 -11.485 75.13055664 -12.25 75.12939453 C-14 75 -14 75 -15 74 C-15.11229771 72.46924982 -15.15675107 70.93345314 -15.17358398 69.39868164 C-15.18707382 68.41577652 -15.20056366 67.4328714 -15.21446228 66.42018127 C-15.22490067 65.34437302 -15.23533905 64.26856476 -15.24609375 63.16015625 C-15.27909864 60.87564817 -15.3123089 58.59114305 -15.34570312 56.30664062 C-15.39263285 52.7110454 -15.43691245 49.11545572 -15.47680664 45.51977539 C-15.63932241 31.55996247 -16.06432919 17.83704829 -18 4 C-3.97288843 -1.72158498 -3.97288843 -1.72158498 0 0 Z " fill="#13B3E7" transform="translate(668,43)"/>
<path d="M0 0 C2.38657268 1.11278686 3.96278776 2.28445285 6 4 C6.61875 3.34 7.2375 2.68 7.875 2 C12.24859624 -0.79910159 15.93807924 -1.07063954 21 0 C24.42717689 2.02543067 27.20750852 4.41501704 29 8 C29.04022391 10.3329866 29.04320247 12.66706666 29 15 C29.886875 15.226875 30.77375 15.45375 31.6875 15.6875 C35.95434135 17.37813525 38.92493804 19.84987609 41 24 C41.23076923 29.53846154 41.23076923 29.53846154 40 32 C40.309375 32.721875 40.61875 33.44375 40.9375 34.1875 C42.24422717 37.6464837 42.27201408 40.32780996 42 44 C41.34 44.99 40.68 45.98 40 47 C40.33 47.99 40.66 48.98 41 50 C41.68899522 57.11961722 41.68899522 57.11961722 38.75 60.875 C34.40076689 64.23577104 31.79054847 65.25691782 26.25 65.125 C25.26515625 65.10695313 24.2803125 65.08890625 23.265625 65.0703125 C22.51796875 65.04710938 21.7703125 65.02390625 21 65 C20.67 65.66 20.34 66.32 20 67 C18.68 66.67 17.36 66.34 16 66 C16.3125 63.625 16.3125 63.625 17 61 C21.13644782 58.24236812 24.33888661 58.9348583 29.1875 59.125 C32.20992399 59.23359095 32.20992399 59.23359095 35 57 C35.36297936 55.02252878 35.36297936 55.02252878 35.1875 52.875 C35.125625 51.59625 35.06375 50.3175 35 49 C30.34525646 46.15015702 26.29860806 44.2976183 21 43 C20.67 44.65 20.34 46.3 20 48 C18.68 47.67 17.36 47.34 16 47 C15.8125 44.125 15.8125 44.125 16 41 C19.76407217 38.49061855 22.64664683 38.4985286 27 39 C30.39368284 39.83514528 33.69628397 40.86265514 37 42 C36.51421457 38.87709365 36.0013988 36.00419641 35 33 C33.12612784 32.19787372 33.12612784 32.19787372 30.9375 31.8125 C29.83728516 31.57466797 29.83728516 31.57466797 28.71484375 31.33203125 C28.14894531 31.22246094 27.58304687 31.11289062 27 31 C27 29.68 27 28.36 27 27 C29.64 27.33 32.28 27.66 35 28 C34.91234772 25.58898639 34.91234772 25.58898639 34 23 C31.62307159 21.26970703 31.62307159 21.26970703 28.6875 20 C21.21629633 16.21096303 21.21629633 16.21096303 19 12 C19.25 9.6875 19.25 9.6875 20 8 C20.99 8 21.98 8 23 8 C18.89542386 5.01485372 16.02254631 4.7045561 11 5 C11 6.98 11 8.96 11 11 C12.98 11 14.96 11 17 11 C17.495 12.485 17.495 12.485 18 14 C16.68 14.99 15.36 15.98 14 17 C14.33 17.33 14.66 17.66 15 18 C15.3125 20.875 15.3125 20.875 15 24 C13 25.75 13 25.75 11 27 C11 27.66 11 28.32 11 29 C11.80824219 29.02578125 12.61648437 29.0515625 13.44921875 29.078125 C22.20786467 29.54299885 22.20786467 29.54299885 26.25 31.875 C28 34 28 34 28 37 C27.38125 36.835 26.7625 36.67 26.125 36.5 C21.74529271 35.79924683 17.42571011 35.92265749 13 36 C11.66867036 41.93046841 12.24251653 44.79142012 15 50 C16.88659875 52.30662599 16.88659875 52.30662599 20 52.3125 C21.485 52.1578125 21.485 52.1578125 23 52 C23.66 51.01 24.32 50.02 25 49 C25.99 49 26.98 49 28 49 C29 52 29 52 28.3125 54.0625 C26.72390626 56.40756695 25.63878292 57.01162195 23 58 C20.67578125 57.79296875 20.67578125 57.79296875 18.3125 57.1875 C17.52488281 56.99542969 16.73726562 56.80335937 15.92578125 56.60546875 C14 56 14 56 13 55 C11.4802724 61.3552245 12.8336508 65.91708727 15 72 C15.53625 71.360625 16.0725 70.72125 16.625 70.0625 C19.55684261 67.51642615 21.11834816 66.92078262 25 67 C27.9375 69.0625 27.9375 69.0625 30 72 C30.1875 75.0625 30.1875 75.0625 29 78 C24.31719922 82.23681975 22.709376 82 16 82 C14.35 88.93 12.7 95.86 11 103 C13.97 103 16.94 103 20 103 C20.0825 102.05125 20.165 101.1025 20.25 100.125 C22.07807584 88.09818527 29.63102676 78.85181457 36.703125 69.375 C45.36893441 57.68714655 48.73603712 48.85510035 46.56640625 34.0390625 C44.40104983 24.4361775 38.71537662 17.83357744 31 12 C31.33 11.01 31.66 10.02 32 9 C36.89158866 9.41927903 38.79999207 11.39999108 42 15 C43.2684375 16.3921875 43.2684375 16.3921875 44.5625 17.8125 C50.84070577 25.47706035 52.20670175 33.05985941 52.3125 42.6875 C52.35600586 43.97817383 52.35600586 43.97817383 52.40039062 45.29492188 C52.47909971 53.32930314 49.94172167 59.61758447 45.375 66.1875 C44.86839844 66.92484375 44.36179687 67.6621875 43.83984375 68.421875 C42.42771842 70.40064935 41.00282795 72.36710193 39.56640625 74.328125 C29.36983105 87.78545436 29.36983105 87.78545436 26.04296875 103.83984375 C26.06423828 104.98517578 26.08550781 106.13050781 26.10742188 107.31054688 C26.16072744 109.72489872 26.22579804 112.13902 26.30273438 114.55273438 C26.32013672 115.69935547 26.33753906 116.84597656 26.35546875 118.02734375 C26.39643677 119.60116821 26.39643677 119.60116821 26.43823242 121.20678711 C25.77813354 125.41413604 23.33363198 126.9194453 20.16796875 129.484375 C13.25452196 133.90243567 6.01057 134.05750099 -2 133 C-6.31672696 131.12699707 -10.26303207 128.86790562 -14 126 C-15.38139262 122.46069228 -15.13295026 118.75252052 -15.125 115 C-15.12757812 113.783125 -15.13015625 112.56625 -15.1328125 111.3125 C-15 108 -15 108 -14.44921875 105.82421875 C-12.90779395 99.5646937 -16.97940966 91.34660643 -20 86 C-24.10127835 79.71839035 -28.61511506 73.71927892 -33.3125 67.875 C-41.05551325 57.3745034 -42.29158324 46.64243157 -41 34 C-39.3994464 25.01979469 -33.70489558 16.26381162 -27 10.1875 C-25 9 -25 9 -21 9 C-21.0625 11.125 -21.0625 11.125 -22 14 C-23.4140625 15.24609375 -23.4140625 15.24609375 -25.1875 16.5625 C-30.89171549 21.06706604 -34.73785573 28.85709563 -36 36 C-37.45472441 53.38514915 -29.94509032 63.85176505 -19.74609375 76.87890625 C-13.99551797 84.3753874 -8.42131768 93.19856821 -9 103 C-6.03 103 -3.06 103 0 103 C-0.45344029 100.6239729 -0.91259259 98.24928419 -1.375 95.875 C-1.50132813 95.20984375 -1.62765625 94.5446875 -1.7578125 93.859375 C-2.5574274 89.781339 -3.59869485 85.91146915 -5 82 C-5.60328125 81.97421875 -6.2065625 81.9484375 -6.828125 81.921875 C-13.36868064 81.45770654 -13.36868064 81.45770654 -16.5 79.1875 C-18.91941876 75.65918098 -18.91941876 75.65918098 -19 73 C-17.68419123 69.85667906 -16.85108502 68.36803676 -13.6875 67 C-10.11960002 67 -8.01266272 68.1513206 -5 70 C-4.67 70.66 -4.34 71.32 -4 72 C-0.57275559 66.85913339 -0.8984403 61.99202204 -1 56 C-1.66386719 56.17917969 -2.32773437 56.35835937 -3.01171875 56.54296875 C-10.20527116 58.27572225 -10.20527116 58.27572225 -14.0625 56.9375 C-16.35653295 54.64346705 -16.74105912 53.19360415 -17 50 C-15.68 50 -14.36 50 -13 50 C-12.67 50.99 -12.34 51.98 -12 53 C-6.24731219 51.73197375 -6.24731219 51.73197375 -2 48 C-1.42297995 45.60036902 -1.42297995 45.60036902 -1.3125 43 C-1.24675781 42.13375 -1.18101563 41.2675 -1.11328125 40.375 C-1.02790155 38.5849705 -1 36.79206453 -1 35 C-8.55038422 35.65349633 -8.55038422 35.65349633 -16 37 C-15.6875 34.625 -15.6875 34.625 -15 32 C-11.59568053 29.73045369 -9.83475798 29.63450051 -5.8125 29.375 C-4.72582031 29.30023437 -3.63914063 29.22546875 -2.51953125 29.1484375 C-1.68808594 29.09945313 -0.85664062 29.05046875 0 29 C0 28.34 0 27.68 0 27 C-0.66 26.566875 -1.32 26.13375 -2 25.6875 C-4 24 -4 24 -4.4375 21.4375 C-4.293125 20.633125 -4.14875 19.82875 -4 19 C-3.01 18.34 -2.02 17.68 -1 17 C-3.475 16.01 -3.475 16.01 -6 15 C-5.67 13.68 -5.34 12.36 -5 11 C-3.35 11 -1.7 11 0 11 C0 9.35 0 7.7 0 6 C-4.71599818 5.07529447 -7.67265609 4.77076223 -12 7 C-9.525 7.99 -9.525 7.99 -7 9 C-7.48141362 13.33272262 -9.74199993 15.27391831 -13 18 C-15.56548102 19.29484183 -18.14323636 20.48141856 -20.79296875 21.59375 C-23.55931465 23.35637747 -24.07897184 24.91275477 -25 28 C-22.03 27.67 -19.06 27.34 -16 27 C-16 28.32 -16 29.64 -16 31 C-17.11375 31.433125 -18.2275 31.86625 -19.375 32.3125 C-23.17512334 33.69911119 -23.17512334 33.69911119 -25 37 C-25.39013716 38.9896995 -25.73202649 40.99019869 -26 43 C-25.3709375 42.71125 -24.741875 42.4225 -24.09375 42.125 C-18.42464868 39.66611268 -14.18147605 38.34931831 -8 39 C-7.01 39.66 -6.02 40.32 -5 41 C-4.8125 44.125 -4.8125 44.125 -5 47 C-6.98 47.495 -6.98 47.495 -9 48 C-9.33 47.01 -9.66 46.02 -10 45 C-9.67 44.34 -9.34 43.68 -9 43 C-10.77260631 43.45142775 -12.5430368 43.91140523 -14.3125 44.375 C-15.29863281 44.63023438 -16.28476562 44.88546875 -17.30078125 45.1484375 C-20.1805816 45.91913174 -20.1805816 45.91913174 -23 48 C-23.6897587 49.85277609 -23.6897587 49.85277609 -23.875 51.9375 C-24.02582031 52.97197266 -24.02582031 52.97197266 -24.1796875 54.02734375 C-24.14633194 56.0673358 -24.14633194 56.0673358 -22.87890625 57.75390625 C-19.52846685 59.97592323 -15.78259647 59.04283102 -11.91015625 58.8125 C-8.61149376 59.02503127 -7.38883139 59.78961144 -5 62 C-5.33 63.65 -5.66 65.3 -6 67 C-6.77537109 66.51660156 -6.77537109 66.51660156 -7.56640625 66.0234375 C-11.71863861 64.27723384 -16.13492469 64.64388412 -20.58984375 64.5390625 C-24.59213893 63.90639728 -26.25422579 62.9538643 -29 60 C-29.7421875 57.5625 -29.7421875 57.5625 -29.875 55 C-29.93429688 54.154375 -29.99359375 53.30875 -30.0546875 52.4375 C-30 50 -30 50 -29.3828125 47.8125 C-29.25648437 47.214375 -29.13015625 46.61625 -29 46 C-29.66 45.34 -30.32 44.68 -31 44 C-31.26397017 39.97445496 -31.45073405 37.11357824 -29.9375 33.375 C-28.72765614 30.95065708 -28.72765614 30.95065708 -29.625 28.0625 C-30 25 -30 25 -28.4375 21.875 C-25.86417786 18.83979952 -23.45519601 16.95293687 -20 15 C-19.34 15 -18.68 15 -18 15 C-18.2475 13.2365625 -18.2475 13.2365625 -18.5 11.4375 C-18.48987408 8.59718043 -18.18871652 7.27585612 -16.5703125 4.91015625 C-11.55039741 -0.01903748 -6.91596268 -1.50998519 0 0 Z M5 8 C6 10 6 10 6 10 Z M-13 9 C-13 12 -13 12 -13 12 Z M24 10 C25 12 25 12 25 12 Z M5 12 C4.30840599 13.84725052 4.30840599 13.84725052 4 16 C4.99 17.485 4.99 17.485 6 19 C6.67958603 16.60280568 6.67958603 16.60280568 7 14 C6.34 13.34 5.68 12.68 5 12 Z M0 19 C1 22 1 22 1 22 Z M10 19 C11 22 11 22 11 22 Z M5 22 C4.93941406 22.68707031 4.87882812 23.37414062 4.81640625 24.08203125 C4.73261719 24.98308594 4.64882813 25.88414063 4.5625 26.8125 C4.48128906 27.70582031 4.40007813 28.59914063 4.31640625 29.51953125 C4 32 4 32 3 35 C3.185625 36.216875 3.37125 37.43375 3.5625 38.6875 C4.02626596 41.79246963 3.89354542 43.89189625 2.9375 46.875 C1.92391487 50.26686659 2.14860696 52.44800915 3 55.875 C4.52968205 62.28979571 3.72035748 68.13273753 0.3125 73.8125 C-1.38558355 77.9364172 -0.57372834 80.66713987 0.6875 84.75 C1.08384186 86.16095098 1.47837506 87.57241127 1.87109375 88.984375 C2.1647583 90.00821289 2.1647583 90.00821289 2.46435547 91.05273438 C3.54564214 94.98361061 4.2677951 98.99214158 5 103 C7.60419399 99.09370901 8.03940125 95.33305701 8.87524414 90.7590332 C9.52083806 87.2938047 10.28073677 84.01404988 11.4375 80.6875 C12.14064663 76.07798323 10.868665 73.98752612 8.96484375 69.859375 C6.98651778 63.99648185 7.05607716 56.71234081 8.58203125 50.7109375 C9.21971744 48.90052005 9.21971744 48.90052005 8 47 C7.92884903 45.02200297 7.91590918 43.04165855 7.9375 41.0625 C7.94652344 40.00160156 7.95554687 38.94070312 7.96484375 37.84765625 C7.97644531 36.90792969 7.98804688 35.96820313 8 35 C8 34.01 8 33.02 8 32 C7.67 31.67 7.34 31.34 7 31 C6.76807135 29.48530552 6.58784762 27.96245438 6.4375 26.4375 C6.35371094 25.61121094 6.26992188 24.78492188 6.18359375 23.93359375 C6.12300781 23.29550781 6.06242187 22.65742188 6 22 C5.67 22 5.34 22 5 22 Z M-13 72 C-13 73.32 -13 74.64 -13 76 C-10.03 76.495 -10.03 76.495 -7 77 C-7.71563266 74.9837767 -7.71563266 74.9837767 -9 73 C-11.05000871 72.19471111 -11.05000871 72.19471111 -13 72 Z M22 72 C19.76975869 73.23513282 19.76975869 73.23513282 18 75 C18 75.66 18 76.32 18 77 C19.65 77 21.3 77 23 77 C23.66 75.68 24.32 74.36 25 73 C24.01 72.67 23.02 72.34 22 72 Z M-10 108 C-10 108.66 -10 109.32 -10 110 C0.23 110 10.46 110 21 110 C20.67 109.34 20.34 108.68 20 108 C10.1 108 0.2 108 -10 108 Z M-10 115 C-10 115.33 -10 115.66 -10 116 C0.23 116 10.46 116 21 116 C21 115.67 21 115.34 21 115 C10.77 115 0.54 115 -10 115 Z M-9 121 C-9.33 121.66 -9.66 122.32 -10 123 C-3.85634412 126.9095992 1.56746601 129.79634293 9 129 C13.72903802 127.36929723 17.24912671 125.29622198 21 122 C17.58934861 120.96025501 14.47735158 120.88491494 10.921875 120.90234375 C9.18164062 120.90717773 9.18164062 120.90717773 7.40625 120.91210938 C5.59640625 120.92467773 5.59640625 120.92467773 3.75 120.9375 C1.91695312 120.94426758 1.91695312 120.94426758 0.046875 120.95117188 C-2.96879946 120.96295185 -5.98437498 120.97940147 -9 121 Z " fill="#9EE49E" transform="translate(41,0)"/>
<path d="M0 0 C1.18613892 0.00785522 1.18613892 0.00785522 2.39624023 0.01586914 C3.67724609 0.02070313 3.67724609 0.02070313 4.98413086 0.02563477 C5.88196289 0.03401367 6.77979492 0.04239258 7.70483398 0.05102539 C8.6065332 0.05553711 9.50823242 0.06004883 10.43725586 0.06469727 C12.67234712 0.07652315 14.90730835 0.09300319 17.14233398 0.11352539 C18.77891153 3.38668048 18.38541468 7.0197477 18.45874023 10.62133789 C18.47952133 11.4619577 18.50030243 12.30257751 18.52171326 13.16867065 C18.58718837 15.85853774 18.64608418 18.54850382 18.70483398 21.23852539 C18.74802115 23.06015028 18.7916355 24.8817651 18.83569336 26.70336914 C18.94367306 31.17332116 19.04276128 35.64334647 19.14233398 40.11352539 C27.39233398 40.11352539 35.64233398 40.11352539 44.14233398 40.11352539 C44.13073242 37.30981445 44.11913086 34.50610352 44.10717773 31.61743164 C44.09938765 28.91357537 44.09331061 26.20972033 44.08740234 23.50585938 C44.08236154 21.62108809 44.075529 19.73632074 44.06689453 17.8515625 C44.05481781 15.14850903 44.0491033 12.44550708 44.04467773 9.74243164 C44.03951645 8.89451553 44.03435516 8.04659943 44.02903748 7.17298889 C44.02884204 5.15281471 44.08027188 3.13274605 44.14233398 1.11352539 C45.69840149 -0.44254212 47.2019077 -0.0161823 49.36108398 -0.01928711 C50.63532227 -0.0212207 50.63532227 -0.0212207 51.93530273 -0.02319336 C53.2752832 -0.01739258 53.2752832 -0.01739258 54.64233398 -0.01147461 C55.5356543 -0.0153418 56.42897461 -0.01920898 57.34936523 -0.02319336 C58.19885742 -0.0219043 59.04834961 -0.02061523 59.92358398 -0.01928711 C60.70797852 -0.01815918 61.49237305 -0.01703125 62.30053711 -0.01586914 C64.14233398 0.11352539 64.14233398 0.11352539 65.14233398 1.11352539 C65.24299026 4.18270727 65.27847842 7.22942815 65.27172852 10.29907227 C65.27435699 11.74528709 65.27435699 11.74528709 65.27703857 13.22071838 C65.28145891 16.42458875 65.27851846 19.62840442 65.27514648 22.83227539 C65.27581947 25.04805512 65.27678945 27.26383478 65.27804565 29.47961426 C65.27952287 34.13021546 65.2773673 38.7807975 65.27270508 43.43139648 C65.26700778 49.40735144 65.27028666 55.38326148 65.27627754 61.35921478 C65.2798825 65.93666933 65.27874487 70.51411314 65.27614975 75.09156799 C65.2754803 77.29570013 65.27630952 79.49983322 65.2786293 81.70396423 C65.28115477 84.77866211 65.27731673 87.85328617 65.27172852 90.92797852 C65.27375275 91.84853531 65.27577698 92.7690921 65.27786255 93.71754456 C65.25659626 99.99926311 65.25659626 99.99926311 64.14233398 101.11352539 C62.73884663 101.2121267 61.33052921 101.24431476 59.92358398 101.24633789 C58.6493457 101.24827148 58.6493457 101.24827148 57.34936523 101.25024414 C56.45604492 101.24637695 55.56272461 101.24250977 54.64233398 101.23852539 C53.74901367 101.24239258 52.85569336 101.24625977 51.93530273 101.25024414 C51.08581055 101.24895508 50.23631836 101.24766602 49.36108398 101.24633789 C48.57668945 101.24520996 47.79229492 101.24408203 46.98413086 101.24291992 C45.14233398 101.11352539 45.14233398 101.11352539 44.14233398 100.11352539 C43.98192206 97.01267318 43.88269996 93.9316496 43.82592773 90.82836914 C43.80514664 89.8975502 43.78436554 88.96673126 43.76295471 88.00770569 C43.69735468 85.02222357 43.63852597 82.03665055 43.57983398 79.05102539 C43.53665869 77.03213563 43.49304473 75.01325519 43.44897461 72.99438477 C43.3408338 68.03419026 43.24183849 63.07393088 43.14233398 58.11352539 C34.89233398 57.78352539 26.64233398 57.45352539 18.14233398 57.11352539 C18.16553711 60.12219727 18.18874023 63.13086914 18.21264648 66.23071289 C18.22823257 69.13647032 18.24038325 72.04222313 18.25219727 74.94799805 C18.26227069 76.97145666 18.27592994 78.99490067 18.29321289 81.01831055 C18.31740246 83.92248128 18.32880347 86.82646 18.33764648 89.73071289 C18.34796906 90.63908905 18.35829163 91.54746521 18.368927 92.48336792 C18.36907806 93.32408844 18.36922913 94.16480896 18.36938477 95.03100586 C18.37382599 95.77269012 18.37826721 96.51437439 18.38284302 97.27853394 C18.14233398 99.11352539 18.14233398 99.11352539 16.14233398 101.11352539 C14.27880859 101.35644531 14.27880859 101.35644531 12.04467773 101.34399414 C11.24352539 101.34206055 10.44237305 101.34012695 9.61694336 101.33813477 C8.77969727 101.32588867 7.94245117 101.31364258 7.07983398 101.30102539 C6.2387207 101.30038086 5.39760742 101.29973633 4.53100586 101.29907227 C-1.71743418 101.25375723 -1.71743418 101.25375723 -2.85766602 100.11352539 C-2.95832229 97.04434351 -2.99381045 93.99762263 -2.98706055 90.92797852 C-2.98881287 89.9638353 -2.99056519 88.99969208 -2.99237061 88.0063324 C-2.99679094 84.80246204 -2.99385049 81.59864637 -2.99047852 78.39477539 C-2.9911515 76.17899566 -2.99212148 73.963216 -2.99337769 71.74743652 C-2.99485491 67.09683532 -2.99269933 62.44625328 -2.98803711 57.7956543 C-2.98233981 51.81969935 -2.98561869 45.8437893 -2.99160957 39.867836 C-2.99521454 35.29038146 -2.9940769 30.71293765 -2.99148178 26.13548279 C-2.99081233 23.93135065 -2.99164155 21.72721756 -2.99396133 19.52308655 C-2.9964868 16.44838867 -2.99264877 13.37376461 -2.98706055 10.29907227 C-2.98908478 9.37851547 -2.99110901 8.45795868 -2.99319458 7.50950623 C-2.96838584 0.18140352 -2.96838584 0.18140352 0 0 Z " fill="#11C8CE" transform="translate(489.857666015625,16.886474609375)"/>
<path d="M0 0 C0.33 7.26 0.66 14.52 1 22 C6.94 22.33 12.88 22.66 19 23 C19 29.7627065 18.71237343 31.46223757 16 37 C11.05 37.33 6.1 37.66 1 38 C0.97522513 43.03539677 0.95710451 48.07075781 0.94506836 53.10620117 C0.94004901 54.81812152 0.93323215 56.53003761 0.92456055 58.24194336 C0.91238979 60.70687922 0.90674762 63.17175825 0.90234375 65.63671875 C0.89718246 66.39836838 0.89202118 67.16001801 0.88670349 67.94474792 C0.88630362 71.75849825 1.07409039 75.29315771 2 79 C7.46137814 79.09752461 12.59255982 78.77249145 18 78 C18.50806447 79.72681437 19.00610467 81.45657979 19.5 83.1875 C19.7784375 84.15042969 20.056875 85.11335938 20.34375 86.10546875 C20.96677608 88.85345876 21.12302812 91.19598416 21 94 C14.24083581 97.61536689 8.58726394 98.22036003 1.0625 98.3125 C-0.11602539 98.35600586 -0.11602539 98.35600586 -1.31835938 98.40039062 C-6.71876951 98.45913986 -9.70903033 97.5682115 -14 94 C-22.57118328 84.2383746 -20.23837786 68.4385834 -20.125 56.3125 C-20.11494984 54.43555165 -20.10582759 52.55859809 -20.09765625 50.68164062 C-20.07580469 46.12096327 -20.0413871 41.5605402 -20 37 C-23.96 37 -27.92 37 -32 37 C-32.495 34.03 -32.495 34.03 -33 31 C-33.99 33.64 -34.98 36.28 -36 39 C-37.06927734 38.91298828 -37.06927734 38.91298828 -38.16015625 38.82421875 C-39.11792969 38.77910156 -40.07570313 38.73398437 -41.0625 38.6875 C-42.47208984 38.60048828 -42.47208984 38.60048828 -43.91015625 38.51171875 C-48.23392446 39.19499438 -51.16685111 40.59498501 -54 44 C-55.03107923 47.86167915 -54.93085189 51.63180646 -54.8671875 55.609375 C-54.87710724 56.73192688 -54.88702698 57.85447876 -54.89724731 59.01104736 C-54.92237975 62.59143789 -54.89998707 66.16964065 -54.875 69.75 C-54.88171328 73.34400298 -54.89796285 76.93784264 -54.91702271 80.53179932 C-54.92537525 82.76758313 -54.92450373 85.00342304 -54.91378784 87.23919678 C-54.91113922 88.24404114 -54.9084906 89.2488855 -54.90576172 90.28417969 C-54.89740799 91.61724152 -54.89740799 91.61724152 -54.8888855 92.97723389 C-55 95 -55 95 -56 96 C-57.33043625 96.0983721 -58.66593344 96.13078592 -60 96.1328125 C-60.804375 96.13410156 -61.60875 96.13539062 -62.4375 96.13671875 C-63.283125 96.13285156 -64.12875 96.12898438 -65 96.125 C-65.845625 96.12886719 -66.69125 96.13273437 -67.5625 96.13671875 C-68.366875 96.13542969 -69.17125 96.13414063 -70 96.1328125 C-70.7425 96.13168457 -71.485 96.13055664 -72.25 96.12939453 C-74 96 -74 96 -75 95 C-75.1071973 93.41192513 -75.14622866 91.81918636 -75.15771484 90.22753906 C-75.16797699 89.20847473 -75.17823914 88.1894104 -75.18881226 87.13946533 C-75.19611359 86.02609802 -75.20341492 84.91273071 -75.2109375 83.765625 C-75.23904107 81.41275388 -75.26770568 79.0598894 -75.296875 76.70703125 C-75.33789058 72.99463333 -75.37476819 69.28235486 -75.40136719 65.56982422 C-75.42925602 61.98899408 -75.47516563 58.40873111 -75.5234375 54.828125 C-75.52669037 53.73904846 -75.52994324 52.64997192 -75.53329468 51.52789307 C-75.64156251 44.62073437 -76.62408304 38.37459682 -78.36050415 31.68572998 C-79 29 -79 29 -79 26 C-77.29870914 25.15238178 -75.58856916 24.3225132 -73.875 23.5 C-72.92367188 23.0359375 -71.97234375 22.571875 -70.9921875 22.09375 C-67.73894476 20.90457511 -65.43521387 20.62427348 -62 21 C-59.68858396 23.85074644 -59 25.3139451 -59 29 C-58.35933594 28.51789062 -57.71867187 28.03578125 -57.05859375 27.5390625 C-50.80248409 22.97051745 -45.70189881 19.46357804 -37.6875 20.3125 C-34 21 -34 21 -32 22 C-29.9625237 22.22858114 -27.91959697 22.41024278 -25.875 22.5625 C-24.23144531 22.68818359 -24.23144531 22.68818359 -22.5546875 22.81640625 C-21.29011719 22.90728516 -21.29011719 22.90728516 -20 23 C-20.00523682 22.43490723 -20.01047363 21.86981445 -20.01586914 21.28759766 C-20.03662422 18.7334097 -20.0496554 16.17923947 -20.0625 13.625 C-20.07087891 12.73554687 -20.07925781 11.84609375 -20.08789062 10.9296875 C-20.09111328 10.07890625 -20.09433594 9.228125 -20.09765625 8.3515625 C-20.10289307 7.56604004 -20.10812988 6.78051758 -20.11352539 5.97119141 C-20 4 -20 4 -19 2 C-16.77734375 1.3671875 -16.77734375 1.3671875 -13.9375 0.875 C-12.55884766 0.62363281 -12.55884766 0.62363281 -11.15234375 0.3671875 C-7.45785998 -0.0631489 -3.71946229 0 0 0 Z " fill="#11D3BF" transform="translate(454,22)"/>
<path d="M0 0 C-0.4811491 5.77378925 -2.18467181 9.95859836 -5 15 C-9.03995567 15.41435443 -11.62952568 14.83508793 -15.1875 13.0625 C-20.89218538 10.36888802 -26.92183986 9.17561343 -33.18359375 10.44140625 C-36.10425887 11.5040183 -37.77640213 12.66460319 -39.5 15.25 C-40.16955122 18.9325317 -40.0331579 21.38394734 -39 25 C-34.41515241 29.46171582 -29.24867538 32.15468941 -23.5625 35 C-13.36644295 40.12606168 -4.61318604 45.08540201 0.3125 55.875 C2.56572269 66.1169213 2.52216789 74.88131295 -2.625 84.25 C-7.35209823 91.5586446 -13.67586737 95.70762261 -22 98 C-25.17891349 98.44721705 -28.29259169 98.52352852 -31.5 98.5 C-32.79744141 98.49577026 -32.79744141 98.49577026 -34.12109375 98.49145508 C-43.64417989 98.25634952 -54.5454476 96.35500592 -62 90 C-60.97137215 84.55432314 -59.75385216 79.88182883 -57 75 C-53.39896319 75.61953322 -50.25547472 76.62762818 -46.875 78 C-40.18647731 80.46087156 -32.91897694 82.45799118 -26 79.8125 C-22.19982602 77.59958145 -22.19982602 77.59958145 -20 74 C-19.22634716 68.93257391 -19.3341814 64.86924978 -22.42358398 60.54833984 C-25.991254 57.04421049 -30.79371952 55.14706613 -35.25 53 C-55.39437125 43.14593814 -55.39437125 43.14593814 -60.078125 33.86328125 C-61.27317723 30.15153006 -61.38306292 26.61128985 -61.375 22.75 C-61.37411377 21.99436768 -61.37322754 21.23873535 -61.37231445 20.46020508 C-61.2479113 14.59178641 -60.22937937 9.98979917 -57 5 C-56.46375 4.154375 -55.9275 3.30875 -55.375 2.4375 C-54.694375 1.7259375 -54.694375 1.7259375 -54 1 C-53.34 1 -52.68 1 -52 1 C-52 0.34 -52 -0.32 -52 -1 C-35.65635261 -10.28858051 -16.13309879 -10.37975106 0 0 Z " fill="#11F596" transform="translate(180,22)"/>
<path d="M0 0 C9.60481616 6.32512284 14.70639206 13.80584438 17.36254883 24.98291016 C19.71978767 37.84031442 18.53282395 52.6653394 11.01171875 63.59765625 C5.25713805 70.4711832 -1.15793287 74.68324608 -10.19140625 75.53125 C-19.01069232 75.77787205 -25.72637326 75.30316379 -33.23828125 70.16015625 C-34.22828125 69.50015625 -35.21828125 68.84015625 -36.23828125 68.16015625 C-36.23828125 67.50015625 -36.23828125 66.84015625 -36.23828125 66.16015625 C-36.89828125 66.16015625 -37.55828125 66.16015625 -38.23828125 66.16015625 C-46.69890887 55.91246537 -47.93334325 42.56521389 -46.98828125 29.77734375 C-45.61595845 20.1955899 -42.16248441 11.12991338 -35.23828125 4.16015625 C-25.82945039 -2.33258148 -10.80461366 -5.2202066 0 0 Z M-23.23828125 18.16015625 C-26.31075681 25.22685005 -26.40917653 32.5406729 -25.98828125 40.09765625 C-25.96121094 40.85755859 -25.93414063 41.61746094 -25.90625 42.40039062 C-25.58193529 48.52575393 -24.70022231 54.83889754 -20.05078125 59.22265625 C-16.18270268 60.51201577 -13.10783804 60.46623307 -9.23828125 59.16015625 C-4.69618933 55.215708 -3.53278101 49.68473837 -3.04736328 43.87524414 C-2.97101647 41.48778444 -2.96514815 39.11114848 -2.98828125 36.72265625 C-2.98054687 35.92794922 -2.9728125 35.13324219 -2.96484375 34.31445312 C-2.95008231 24.9370777 -2.95008231 24.9370777 -6.44702148 16.49414062 C-9.0875565 14.00051997 -11.25020172 13.15806494 -14.80078125 12.53515625 C-19.19146689 13.33346273 -20.55692702 14.63609069 -23.23828125 18.16015625 Z " fill="#10BED9" transform="translate(619.23828125,44.83984375)"/>
<path d="M0 0 C0.74548096 0.00572021 1.49096191 0.01144043 2.2590332 0.01733398 C10.35647065 0.27842821 16.40604907 2.79361779 22.0625 8.6875 C28.25395772 16.70306991 29.86460705 25.94747803 29.75 35.8125 C29.74548828 36.55306641 29.74097656 37.29363281 29.73632812 38.05664062 C29.72462175 39.87112899 29.70668898 41.68557534 29.6875 43.5 C26.35594749 45.16577625 22.62213941 44.62007856 18.9609375 44.59765625 C17.66671371 44.59553383 17.66671371 44.59553383 16.34634399 44.59336853 C13.5850277 44.58776188 10.82379188 44.57520827 8.0625 44.5625 C6.1927095 44.55748586 4.32291774 44.5529228 2.453125 44.54882812 C-2.13544777 44.53779029 -6.72396023 44.5205212 -11.3125 44.5 C-11.17762545 45.93935252 -11.03562236 47.37803822 -10.890625 48.81640625 C-10.81231445 49.61763916 -10.73400391 50.41887207 -10.65332031 51.24438477 C-10.19398449 54.28435876 -9.29969365 56.15795034 -7.3125 58.5 C-1.08549116 61.5021184 5.3545172 61.4958792 11.9296875 59.53125 C13.98730086 58.78668575 16.0321683 58.00536817 18.05859375 57.1796875 C20.6875 56.5 20.6875 56.5 22.921875 57.14453125 C26.03685198 59.53589632 26.78709506 62.79118916 27.6875 66.5 C27.875 69.25 27.875 69.25 26.6875 71.5 C17.64026104 77.78706436 5.50651513 79.25364001 -5.23046875 78.21875 C-13.42644394 76.73082712 -20.39375393 73.35968792 -25.6953125 66.78515625 C-33.63143388 55.16610429 -34.05427232 40.15355167 -31.62109375 26.66796875 C-28.93580811 17.01667014 -23.75657199 9.08000079 -15.3125 3.5 C-10.06942236 0.82091521 -5.86213931 -0.05235828 0 0 Z M-10.3125 19.5 C-12.30457883 23.29443587 -12.3125 24.99305056 -12.3125 29.5 C-5.3825 29.5 1.5475 29.5 8.6875 29.5 C8.85587102 21.37302419 8.85587102 21.37302419 4.6875 15.5 C-1.57055501 12.37097249 -6.34884577 14.25398705 -10.3125 19.5 Z " fill="#11A7F5" transform="translate(794.3125,42.5)"/>
<path d="M0 0 C1.01191406 -0.02900391 2.02382813 -0.05800781 3.06640625 -0.08789062 C10.17666226 -0.14783442 15.91576638 0.74923695 21.27001953 5.72509766 C30.55078589 16.16972228 28.00958148 33.32329413 28.22680664 46.43505859 C28.2667212 48.7434108 28.31814954 51.05128979 28.37109375 53.359375 C28.3795079 54.05432068 28.38792206 54.74926636 28.39659119 55.465271 C28.511261 60.04526309 29.43849415 63.94278157 30.75 68.3125 C30.75 69.6325 30.75 70.9525 30.75 72.3125 C29.02656245 73.15761824 27.29595947 73.98813354 25.5625 74.8125 C24.11810547 75.50859375 24.11810547 75.50859375 22.64453125 76.21875 C19.727577 77.32097293 17.83062545 77.68688157 14.75 77.3125 C12.77389614 75.26825462 11.75 74.1948175 11.75 71.3125 C11.04617188 71.745625 10.34234375 72.17875 9.6171875 72.625 C1.56812935 77.16441661 -5.0538102 78.61183985 -14.25 77.3125 C-20.99014669 75.40790596 -24.57275064 71.3614849 -28.35546875 65.640625 C-30.75457086 59.39667365 -30.47815697 49.89039529 -28.3046875 43.55859375 C-27.10238098 41.56609206 -25.87680945 39.97094186 -24.25 38.3125 C-23.528125 37.57 -22.80625 36.8275 -22.0625 36.0625 C-12.66361073 30.21430223 -3.04562751 29.26431867 7.75 28.3125 C7.60831863 26.87458484 7.46148957 25.4371763 7.3125 24 C7.23128906 23.19949219 7.15007812 22.39898437 7.06640625 21.57421875 C6.79734307 19.15162821 6.79734307 19.15162821 5.75 16.3125 C-1.31595681 15.98469788 -7.31498923 16.214425 -13.99609375 18.65625 C-16.50667669 19.38723429 -18.64861856 19.42261138 -21.25 19.3125 C-21.97697561 17.57016175 -22.68098244 15.81822655 -23.375 14.0625 C-23.76945312 13.08796875 -24.16390625 12.1134375 -24.5703125 11.109375 C-25.25 8.3125 -25.25 8.3125 -24.609375 6.05859375 C-22.98800797 3.97597576 -21.86677187 3.43835195 -19.375 2.625 C-18.69695312 2.39425781 -18.01890625 2.16351563 -17.3203125 1.92578125 C-11.48069324 0.19593177 -6.0794085 0.05720899 0 0 Z M-9.25 46.9375 C-10.85520185 50.74985439 -11.12029713 54.26310096 -10.25 58.3125 C-8.51650664 61.12545808 -7.33207049 61.66139081 -4.25 63.3125 C0.05570685 63.84966421 3.01500423 62.72593512 6.75 60.625 C9.98699589 55.26372555 9.31009315 49.42551669 8.75 43.3125 C7.62280116 41.96955756 7.62280116 41.96955756 4.6875 42.0625 C-0.62275895 42.3996593 -5.07317969 43.54383349 -9.25 46.9375 Z " fill="#12DEB1" transform="translate(333.25,42.6875)"/>
<path d="M0 0 C4.89158866 0.41927903 6.79999207 2.39999108 10 6 C10.845625 6.928125 11.69125 7.85625 12.5625 8.8125 C18.84070577 16.47706035 20.20670175 24.05985941 20.3125 33.6875 C20.34150391 34.54794922 20.37050781 35.40839844 20.40039062 36.29492188 C20.47909971 44.32930314 17.94172167 50.61758447 13.375 57.1875 C12.86839844 57.92484375 12.36179687 58.6621875 11.83984375 59.421875 C10.42771842 61.40064935 9.00282795 63.36710193 7.56640625 65.328125 C-2.31264659 78.09142489 -2.31264659 78.09142489 -6.0625 93.2734375 C-6.05476563 94.0984375 -6.04703125 94.9234375 -6.0390625 95.7734375 C-6.01313811 97.50000176 -5.98709751 99.22656429 -5.9609375 100.953125 C-5.92208609 105.11022635 -5.9320459 108.94511179 -7 113 C-7.33 113 -7.66 113 -8 113 C-8 104.75 -8 96.5 -8 88 C-8.66 88 -9.32 88 -10 88 C-10.33 90.31 -10.66 92.62 -11 95 C-11.33 95 -11.66 95 -12 95 C-10.97032285 81.09935843 -3.3732044 71.19751315 4.703125 60.375 C13.36893441 48.68714655 16.73603712 39.85510035 14.56640625 25.0390625 C12.40104983 15.4361775 6.71537662 8.83357744 -1 3 C-0.67 2.01 -0.34 1.02 0 0 Z " fill="#9BE19B" transform="translate(73,9)"/>
<path d="M0 0 C-0.0625 2.125 -0.0625 2.125 -1 5 C-2.4140625 6.24609375 -2.4140625 6.24609375 -4.1875 7.5625 C-9.89171549 12.06706604 -13.73785573 19.85709563 -15 27 C-16.45472441 44.38514915 -8.94509032 54.85176505 1.25390625 67.87890625 C7.00448203 75.3753874 12.57868232 84.19856821 12 94 C12.99 94.495 12.99 94.495 14 95 C13.01 95 12.02 95 11 95 C10.34 93.68 9.68 92.36 9 91 C9 92.98 9 94.96 9 97 C6.74366041 94.74366041 6.65063992 93.97870237 6.125 90.9375 C3.45249943 78.3727585 -4.41637324 68.69901225 -12.3125 58.875 C-20.05551325 48.3745034 -21.29158324 37.64243157 -20 25 C-18.3994464 16.01979469 -12.70489558 7.26381162 -6 1.1875 C-4 0 -4 0 0 0 Z " fill="#9EEA9E" transform="translate(20,9)"/>
<path d="M0 0 C0 3.3 0 6.6 0 10 C1.485 9.34 2.97 8.68 4.5 8 C9.34185959 6.06325617 12.82023985 5.45476209 18 6 C18.99 6.66 19.98 7.32 21 8 C21.1875 11.125 21.1875 11.125 21 14 C19.68 14.33 18.36 14.66 17 15 C16.67 14.01 16.34 13.02 16 12 C16.33 11.34 16.66 10.68 17 10 C15.22739369 10.45142775 13.4569632 10.91140523 11.6875 11.375 C10.70136719 11.63023438 9.71523438 11.88546875 8.69921875 12.1484375 C5.8194184 12.91913174 5.8194184 12.91913174 3 15 C2.3102413 16.85277609 2.3102413 16.85277609 2.125 18.9375 C2.02445313 19.62714844 1.92390625 20.31679688 1.8203125 21.02734375 C1.85366806 23.0673358 1.85366806 23.0673358 3.12109375 24.75390625 C6.47153315 26.97592323 10.21740353 26.04283102 14.08984375 25.8125 C17.38850624 26.02503127 18.61116861 26.78961144 21 29 C20.67 30.65 20.34 32.3 20 34 C19.22462891 33.51660156 19.22462891 33.51660156 18.43359375 33.0234375 C14.28136139 31.27723384 9.86507531 31.64388412 5.41015625 31.5390625 C1.40786107 30.90639728 -0.25422579 29.9538643 -3 27 C-3.7421875 24.5625 -3.7421875 24.5625 -3.875 22 C-3.93429687 21.154375 -3.99359375 20.30875 -4.0546875 19.4375 C-4.00268583 17.1197111 -3.56786325 15.23160293 -3 13 C-3.33 12.67 -3.66 12.34 -4 12 C-4.47088932 4.81893794 -4.47088932 4.81893794 -2.5625 1.5 C-1 0 -1 0 0 0 Z " fill="#98DB98" transform="translate(15,33)"/>
<path d="M0 0 C0.66 0 1.32 0 2 0 C2 4.29 2 8.58 2 13 C1.01 13 0.02 13 -1 13 C-0.67402832 13.86061035 -0.34805664 14.7212207 -0.01220703 15.60791016 C1.01348252 19.04518238 1.2306704 21.7022894 1.1953125 25.2734375 C1.18886719 26.42714844 1.18242188 27.58085938 1.17578125 28.76953125 C1.15902344 29.95933594 1.14226563 31.14914063 1.125 32.375 C1.11597656 33.58800781 1.10695313 34.80101562 1.09765625 36.05078125 C1.07416588 39.03405773 1.04131682 42.01692594 1 45 C0.34 45 -0.32 45 -1 45 C-1 42.69 -1 40.38 -1 38 C-1.80824219 38.17917969 -2.61648437 38.35835937 -3.44921875 38.54296875 C-4.51785156 38.75566406 -5.58648437 38.96835937 -6.6875 39.1875 C-7.74324219 39.40792969 -8.79898438 39.62835938 -9.88671875 39.85546875 C-13.61399787 40.02850429 -15.11104511 39.30279013 -18 37 C-18.8125 34.3125 -18.8125 34.3125 -19 32 C-17.68 32 -16.36 32 -15 32 C-14.67 32.99 -14.34 33.98 -14 35 C-8.24731219 33.73197375 -8.24731219 33.73197375 -4 30 C-3.42297995 27.60036902 -3.42297995 27.60036902 -3.3125 25 C-3.24675781 24.13375 -3.18101563 23.2675 -3.11328125 22.375 C-3.02790155 20.5849705 -3 18.79206453 -3 17 C-10.55038422 17.65349633 -10.55038422 17.65349633 -18 19 C-17.6875 16.625 -17.6875 16.625 -17 14 C-13.36280395 11.57520264 -11.14296518 11.61337423 -6.8125 11.375 C-5.54019531 11.30023438 -4.26789062 11.22546875 -2.95703125 11.1484375 C-1.49330078 11.07496094 -1.49330078 11.07496094 0 11 C-0.66 9.02 -1.32 7.04 -2 5 C-1.34 5 -0.68 5 0 5 C0 3.35 0 1.7 0 0 Z " fill="#9AF09A" transform="translate(43,18)"/>
<path d="M0 0 C1.91302307 3.26613695 2.35674661 5.99445248 2.625 9.75 C2.69976562 10.73484375 2.77453125 11.7196875 2.8515625 12.734375 C2.92503906 13.85585937 2.92503906 13.85585937 3 15 C3.99 14.67 4.98 14.34 6 14 C6.09796875 13.30132812 6.1959375 12.60265625 6.296875 11.8828125 C6.44640625 10.97273438 6.5959375 10.06265625 6.75 9.125 C6.88921875 8.22007813 7.0284375 7.31515625 7.171875 6.3828125 C8 4 8 4 10.078125 2.6796875 C10.71234375 2.45539063 11.3465625 2.23109375 12 2 C11.85831863 3.43791516 11.71148957 4.8753237 11.5625 6.3125 C11.48128906 7.11300781 11.40007813 7.91351563 11.31640625 8.73828125 C11 11 11 11 10 14 C12.97 14 15.94 14 19 14 C19 14.66 19 15.32 19 16 C16.69 16.33 14.38 16.66 12 17 C12 17.33 12 17.66 12 18 C4.41 18 -3.18 18 -11 18 C-11 18.99 -11 19.98 -11 21 C-9.93523438 20.91621094 -8.87046875 20.83242187 -7.7734375 20.74609375 C1.63162429 20.06582947 10.59832485 20.03152316 20 21 C20 21.33 20 21.66 20 22 C9.44 22 -1.12 22 -12 22 C-13.67057063 17.82357344 -14.24868781 16.33104148 -14.125 12.1875 C-14.10695313 11.39730469 -14.08890625 10.60710937 -14.0703125 9.79296875 C-14.03550781 8.90544922 -14.03550781 8.90544922 -14 8 C-13.01 8.495 -13.01 8.495 -12 9 C-11.375 12.0625 -11.375 12.0625 -11 15 C-10.01 14.67 -9.02 14.34 -8 14 C-5.66700175 13.96045766 -3.33291811 13.95598268 -1 14 C-1.01160156 13.24074219 -1.02320313 12.48148438 -1.03515625 11.69921875 C-1.04417969 10.70535156 -1.05320312 9.71148437 -1.0625 8.6875 C-1.07410156 7.70136719 -1.08570313 6.71523437 -1.09765625 5.69921875 C-1 3 -1 3 0 0 Z " fill="#87D787" transform="translate(42,89)"/>
<path d="M0 0 C0.99 0.33 1.98 0.66 3 1 C2.01 1.66 1.02 2.32 0 3 C-0.36297936 4.97747122 -0.36297936 4.97747122 -0.1875 7.125 C-0.125625 8.40375 -0.06375 9.6825 0 11 C1.98 11 3.96 11 6 11 C6.33 11.99 6.66 12.98 7 14 C5.71034824 15.37562854 4.37310707 16.70766393 3 18 C2.34 18 1.68 18 1 18 C1 19.65 1 21.3 1 23 C0.01 23 -0.98 23 -2 23 C-2.33 21.35 -2.66 19.7 -3 18 C-3.03738281 18.91523438 -3.07476562 19.83046875 -3.11328125 20.7734375 C-3.17902344 21.96195313 -3.24476562 23.15046875 -3.3125 24.375 C-3.37050781 25.55835937 -3.42851563 26.74171875 -3.48828125 27.9609375 C-3.65714844 28.96382812 -3.82601562 29.96671875 -4 31 C-4.99 31.66 -5.98 32.32 -7 33 C-6.90460937 33.67546875 -6.80921875 34.3509375 -6.7109375 35.046875 C-6.60007813 35.93890625 -6.48921875 36.8309375 -6.375 37.75 C-6.25898437 38.63171875 -6.14296875 39.5134375 -6.0234375 40.421875 C-5.99792183 43.22859878 -6.55156156 44.63384866 -8 47 C-8.06058594 46.34773438 -8.12117188 45.69546875 -8.18359375 45.0234375 C-8.63519991 40.31283783 -9.14195039 35.65798362 -10 31 C-9.01 31 -8.02 31 -7 31 C-7.0721875 29.73285156 -7.144375 28.46570313 -7.21875 27.16015625 C-7.3126291 25.46094463 -7.40637179 23.76172547 -7.5 22.0625 C-7.54769531 21.23169922 -7.59539063 20.40089844 -7.64453125 19.54492188 C-7.94546289 14.02067678 -8.04466161 8.53245695 -8 3 C-7.01 3.33 -6.02 3.66 -5 4 C-4.175 3.34 -3.35 2.68 -2.5 2 C-1.675 1.34 -0.85 0.68 0 0 Z M-6 8 C-5 10 -5 10 -5 10 Z M-6 12 C-6.69159401 13.84725052 -6.69159401 13.84725052 -7 16 C-6.01 17.485 -6.01 17.485 -5 19 C-4.32041397 16.60280568 -4.32041397 16.60280568 -4 14 C-4.66 13.34 -5.32 12.68 -6 12 Z M-1 19 C0 22 0 22 0 22 Z " fill="#AAE0AA" transform="translate(52,0)"/>
<path d="M0 0 C0.33 0 0.66 0 1 0 C1 1.98 1 3.96 1 6 C1.99 6 2.98 6 4 6 C4 4.35 4 2.7 4 1 C4.99 1 5.98 1 7 1 C7.25 3.8125 7.25 3.8125 7 7 C5 8.75 5 8.75 3 10 C3 10.66 3 11.32 3 12 C3.80824219 12.02578125 4.61648437 12.0515625 5.44921875 12.078125 C14.20786467 12.54299885 14.20786467 12.54299885 18.25 14.875 C20 17 20 17 20 20 C19.071875 19.7525 19.071875 19.7525 18.125 19.5 C13.74529271 18.79924683 9.42571011 18.92265749 5 19 C4.67 19.99 4.34 20.98 4 22 C3.34 22 2.68 22 2 22 C2.33 24.31 2.66 26.62 3 29 C2.34 29 1.68 29 1 29 C-0.31907685 26.3618463 -0.06132406 24.37722213 0 21.4375 C0.03770315 19.62539219 0.04653361 17.81190256 0 16 C-0.33 15.67 -0.66 15.34 -1 15 C-1.09909302 12.66839945 -1.12970504 10.33370058 -1.125 8 C-1.12757812 6.72125 -1.13015625 5.4425 -1.1328125 4.125 C-1 1 -1 1 0 0 Z " fill="#94EB94" transform="translate(49,17)"/>
<path d="M0 0 C1.23878906 0.04382813 2.47757813 0.08765625 3.75390625 0.1328125 C5.70490234 0.21015625 5.70490234 0.21015625 7.6953125 0.2890625 C8.98824219 0.33289063 10.28117187 0.37671875 11.61328125 0.421875 C21.81896271 0.8033958 21.81896271 0.8033958 25.8203125 1.9140625 C26.4803125 1.9140625 27.1403125 1.9140625 27.8203125 1.9140625 C27.8203125 3.5640625 27.8203125 5.2140625 27.8203125 6.9140625 C26.86141113 6.90882568 25.90250977 6.90358887 24.91455078 6.89819336 C21.36247691 6.88011571 17.81040713 6.86862035 14.25830078 6.85913086 C12.71988237 6.85409698 11.18146875 6.84726942 9.64306641 6.83862305 C7.43390724 6.82651611 5.22481124 6.82082481 3.015625 6.81640625 C2.32598663 6.81124496 1.63634827 6.80608368 0.92581177 6.80076599 C-2.75028405 6.75088086 -2.75028405 6.75088086 -6.1796875 7.9140625 C-6.1796875 7.2540625 -6.1796875 6.5940625 -6.1796875 5.9140625 C-6.8396875 5.9140625 -7.4996875 5.9140625 -8.1796875 5.9140625 C-8.1796875 4.2640625 -8.1796875 2.6140625 -8.1796875 0.9140625 C-5.36882396 -0.49136927 -3.13695817 -0.11246286 0 0 Z " fill="#85DB85" transform="translate(36.1796875,115.0859375)"/>
<path d="M0 0 C0 0.66 0 1.32 0 2 C1.65 2.33 3.3 2.66 5 3 C2.06279492 4.52299523 -0.9168649 5.80100302 -4 7 C-1.525 7.99 -1.525 7.99 1 9 C0.52797514 13.24822374 -1.96655518 15.19989709 -5 18 C-5.66 17.67 -6.32 17.34 -7 17 C-7 14.03 -7 11.06 -7 8 C-7.66 8 -8.32 8 -9 8 C-9 10.31 -9 12.62 -9 15 C-9.33 15 -9.66 15 -10 15 C-10.43351613 11.91119755 -10.69481499 9.98148221 -10 7 C-7.50671352 3.95454734 -4.15309357 0 0 0 Z M-5 9 C-5 12 -5 12 -5 12 Z " fill="#A8E8A8" transform="translate(33,0)"/>
<path d="M0 0 C0.66 0.66 1.32 1.32 2 2 C2.66 2 3.32 2 4 2 C3.731875 2.66 3.46375 3.32 3.1875 4 C2.795625 4.99 2.40375 5.98 2 7 C1.48308594 8.18207031 0.96617188 9.36414063 0.43359375 10.58203125 C-1.34275447 15.33163122 -1.30706897 19.67268729 -1.125 24.6875 C-0.86020768 34.69509208 -0.86020768 34.69509208 -2 39 C-2.33 39 -2.66 39 -3 39 C-3 30.75 -3 22.5 -3 14 C-3.66 14 -4.32 14 -5 14 C-5.33 16.31 -5.66 18.62 -6 21 C-6.33 21 -6.66 21 -7 21 C-6.42973071 13.30136452 -4.30684157 6.46026235 0 0 Z " fill="#ABDBAB" transform="translate(68,83)"/>
<path d="M0 0 C-0.0625 2.125 -0.0625 2.125 -1 5 C-2.4140625 6.24609375 -2.4140625 6.24609375 -4.1875 7.5625 C-9.27976006 11.55003422 -11.44057283 17.2061319 -14 23 C-15.53271273 18.41201223 -14.02911182 16.22055258 -12 12 C-12.66 12 -13.32 12 -14 12 C-11.18200547 5.65951231 -7.28078361 0 0 0 Z " fill="#9FDA9F" transform="translate(20,9)"/>
<path d="M0 0 C3.25228539 0.62122305 6.28491024 0.62717262 9.59375 0.59375 C11.33591797 0.58021484 11.33591797 0.58021484 13.11328125 0.56640625 C13.99371094 0.55480469 14.87414062 0.54320312 15.78125 0.53125 C14.90625 4.40625 14.90625 4.40625 13.78125 5.53125 C11.31143231 5.6314574 8.87573776 5.67002038 6.40625 5.65625 C5.72046875 5.66011719 5.0346875 5.66398438 4.328125 5.66796875 C1.20902362 5.66190046 -1.23850635 5.52466455 -4.21875 4.53125 C-5.40625 2.46875 -5.40625 2.46875 -6.21875 0.53125 C-3.87751198 -0.24916267 -2.44003555 -0.51550047 0 0 Z " fill="#A1F3A1" transform="translate(40.21875,127.46875)"/>
<path d="M0 0 C1.32 0.66 2.64 1.32 4 2 C4 2.66 4 3.32 4 4 C5.0725 3.690625 6.145 3.38125 7.25 3.0625 C9.82866222 2.33187904 12.39512102 1.62517096 15 1 C14.34 2.32 13.68 3.64 13 5 C13.99 5 14.98 5 16 5 C15 7 15 7 12.890625 7.73828125 C5.80465365 9.27916555 5.80465365 9.27916555 1.9375 7.9375 C-0.37041093 5.62958907 -0.82988688 4.23214926 -1 1 C-0.67 0.67 -0.34 0.34 0 0 Z " fill="#99E099" transform="translate(25,49)"/>
<path d="M0 0 C2.21826259 2.40311781 2.96867203 3.69925146 3.3125 7 C3.01350896 9.87031397 2.49648497 11.56821192 1 14 C0.34 13.34 -0.32 12.68 -1 12 C-1.33 13.32 -1.66 14.64 -2 16 C-2.33 15.01 -2.66 14.02 -3 13 C-4.87387216 12.19787372 -4.87387216 12.19787372 -7.0625 11.8125 C-7.79597656 11.65394531 -8.52945313 11.49539062 -9.28515625 11.33203125 C-9.85105469 11.22246094 -10.41695313 11.11289062 -11 11 C-11 9.68 -11 8.36 -11 7 C-8.36 7.33 -5.72 7.66 -3 8 C-2.34 7.01 -1.68 6.02 -1 5 C-0.67 5.99 -0.34 6.98 0 8 C0 5.36 0 2.72 0 0 Z " fill="#AAD9AA" transform="translate(79,20)"/>
<path d="M0 0 C2.91379954 2.91379954 2.94747648 6.04760535 3 10 C2.35268711 15.84379691 0.9665832 20.87590175 -2 26 C-3 23 -3 23 -2 20 C-2.66 20 -3.32 20 -4 20 C-4 20.99 -4 21.98 -4 23 C-4.99 23 -5.98 23 -7 23 C-6.71125 22.46375 -6.4225 21.9275 -6.125 21.375 C-3.565867 15.97238589 -2.60919746 10.88890878 -2 5 C-1.67 5 -1.34 5 -1 5 C-1 7.31 -1 9.62 -1 12 C-0.34 12 0.32 12 1 12 C0.67 8.04 0.34 4.08 0 0 Z " fill="#A1D7A1" transform="translate(43,51)"/>
<path d="M0 0 C0.556875 0.268125 1.11375 0.53625 1.6875 0.8125 C1.48125 1.410625 1.275 2.00875 1.0625 2.625 C0.38078085 5.09700846 0.38078085 5.09700846 2.6875 7.8125 C2.3125 10 2.3125 10 1.6875 11.8125 C0.3675 11.4825 -0.9525 11.1525 -2.3125 10.8125 C-2.3125 10.1525 -2.3125 9.4925 -2.3125 8.8125 C-3.9625 9.1425 -5.6125 9.4725 -7.3125 9.8125 C-7.625 7.625 -7.625 7.625 -7.3125 4.8125 C-3.33459945 -0.27037293 -3.33459945 -0.27037293 0 0 Z " fill="#A3D9A3" transform="translate(32.3125,17.1875)"/>
<path d="M0 0 C0.33 0 0.66 0 1 0 C1 4.95 1 9.9 1 15 C1.66 15 2.32 15 3 15 C3 15.66 3 16.32 3 17 C3.763125 17.103125 4.52625 17.20625 5.3125 17.3125 C8.17059424 18.04364039 9.15742885 18.76951913 11 21 C10 23 10 23 9 24 C4.92253115 24 3.16801935 22.47931949 0 20 C-1.41214662 16.43679282 -1.13289741 12.65786093 -1.125 8.875 C-1.12757812 7.63492188 -1.13015625 6.39484375 -1.1328125 5.1171875 C-1 2 -1 2 0 0 Z " fill="#A4E3A4" transform="translate(27,106)"/>
<path d="M0 0 C3.26296197 0.22503186 4.04203745 1.04787598 6.25 3.5625 C6.8275 4.366875 7.405 5.17125 8 6 C7.34 7.32 6.68 8.64 6 10 C4.68 9.67 3.36 9.34 2 9 C1.67 9.99 1.34 10.98 1 12 C-0.32 11.34 -1.64 10.68 -3 10 C-2.67 8.68 -2.34 7.36 -2 6 C-1.34 6 -0.68 6 0 6 C-0.2784375 4.7934375 -0.2784375 4.7934375 -0.5625 3.5625 C-0.706875 2.716875 -0.85125 1.87125 -1 1 C-0.67 0.67 -0.34 0.34 0 0 Z " fill="#9FE19F" transform="translate(61,17)"/>
<path d="M0 0 C3.15943426 2.61278727 4.24684367 5.59381793 5.6875 9.375 C6.12449219 10.49648437 6.56148437 11.61796875 7.01171875 12.7734375 C7.92329817 15.74958215 8.21330789 17.92144829 8 21 C8.66 21.33 9.32 21.66 10 22 C9.01 22 8.02 22 7 22 C6.34 20.68 5.68 19.36 5 18 C5 19.98 5 21.96 5 24 C2.37548383 21.37548383 2.4167132 19.5122172 1.875 15.875 C1.62363281 14.23144531 1.62363281 14.23144531 1.3671875 12.5546875 C1.18542969 11.29011719 1.18542969 11.29011719 1 10 C1.33 10.66 1.66 11.32 2 12 C2.66 11.67 3.32 11.34 4 11 C3.34 9.9275 2.68 8.855 2 7.75 C0.11704193 4.69019314 0 3.8664136 0 0 Z " fill="#A9DEA9" transform="translate(24,82)"/>
<path d="M0 0 C1.49080078 0.02707031 1.49080078 0.02707031 3.01171875 0.0546875 C3.77097656 0.07789062 4.53023437 0.10109375 5.3125 0.125 C4.6525 1.775 3.9925 3.425 3.3125 5.125 C1.4871875 5.3415625 1.4871875 5.3415625 -0.375 5.5625 C-3.51420377 5.95280953 -6.5950134 6.44851856 -9.6875 7.125 C-9.375 4.75 -9.375 4.75 -8.6875 2.125 C-5.26655758 -0.15562828 -4.00562778 -0.09425007 0 0 Z " fill="#84CE84" transform="translate(34.6875,29.875)"/>
<path d="M0 0 C3.70250082 0.03182665 5.08358925 0.21598176 8.375 2.125 C10.25 4.3125 10.25 4.3125 10.25 7.3125 C9.610625 7.168125 8.97125 7.02375 8.3125 6.875 C5.39565695 6.27806674 5.39565695 6.27806674 2.984375 6.1640625 C2.18515625 6.10992187 1.3859375 6.05578125 0.5625 6 C-0.20449219 5.96261719 -0.97148438 5.92523438 -1.76171875 5.88671875 C-3.75 5.3125 -3.75 5.3125 -5.01953125 3.26953125 C-5.26058594 2.62371094 -5.50164063 1.97789063 -5.75 1.3125 C-4.10962605 -0.32787395 -2.25523159 0.06338669 0 0 Z " fill="#84CC84" transform="translate(58.75,29.6875)"/>
<path d="M0 0 C1.875 0.1875 1.875 0.1875 4 1 C6.10407599 4.97436576 6.21476435 8.36916454 6.125 12.8125 C6.10695313 13.97394531 6.08890625 15.13539062 6.0703125 16.33203125 C6.04710938 17.21246094 6.02390625 18.09289062 6 19 C5.34 18.67 4.68 18.34 4 18 C4.0825 17.319375 4.165 16.63875 4.25 15.9375 C3.96237473 12.55790312 2.6579845 10.61898215 0.890625 7.78125 C-0.41609949 5.16780102 -0.27876243 2.8573149 0 0 Z " fill="#A1E5A1" transform="translate(86,23)"/>
<path d="M0 0 C1.875 1.6875 1.875 1.6875 3 4 C3.0625 7 3.0625 7 2 10 C-0.75 12.4375 -0.75 12.4375 -4 14 C-6.875 13.75 -6.875 13.75 -9 13 C-9 12.67 -9 12.34 -9 12 C-8.43410156 11.86722656 -7.86820313 11.73445313 -7.28515625 11.59765625 C-6.18494141 11.33275391 -6.18494141 11.33275391 -5.0625 11.0625 C-4.33160156 10.88847656 -3.60070312 10.71445313 -2.84765625 10.53515625 C-1.00030102 10.16112431 -1.00030102 10.16112431 0 9 C0.04080783 7.00041636 0.04254356 4.99954746 0 3 C-0.66 4.32 -1.32 5.64 -2 7 C-2.99 5.68 -3.98 4.36 -5 3 C-4.34 3 -3.68 3 -3 3 C-3 2.34 -3 1.68 -3 1 C-4.98 1.33 -6.96 1.66 -9 2 C-7.03592044 -1.92815913 -3.62909948 -1.17945733 0 0 Z " fill="#9EBA9E" transform="translate(68,68)"/>
<path d="M0 0 C1.258125 -0.04125 2.51625 -0.0825 3.8125 -0.125 C4.52019531 -0.14820312 5.22789063 -0.17140625 5.95703125 -0.1953125 C8 0 8 0 11 2 C12.1577506 5.47325181 12.06866652 8.36067448 12 12 C11.34 12 10.68 12 10 12 C10 10.02 10 8.04 10 6 C6.34920174 4.38935371 2.9492568 3.55105909 -1 3 C-0.67 2.01 -0.34 1.02 0 0 Z " fill="#93EA93" transform="translate(33,0)"/>
<path d="M0 0 C0.33 0 0.66 0 1 0 C1.12117187 1.10859375 1.24234375 2.2171875 1.3671875 3.359375 C1.53606296 4.82296234 1.70535572 6.28650157 1.875 7.75 C1.95363281 8.47960938 2.03226562 9.20921875 2.11328125 9.9609375 C2.56072586 13.74700727 3.2566099 16.63886954 5 20 C4.67 20.99 4.34 21.98 4 23 C3.34 22.34 2.68 21.68 2 21 C1.67 22.32 1.34 23.64 1 25 C-2 18.375 -2 18.375 -2 15 C-1.34 15 -0.68 15 0 15 C0 10.05 0 5.1 0 0 Z " fill="#A6D8A6" transform="translate(3,37)"/>
<path d="M0 0 C0.66 0 1.32 0 2 0 C2.24954005 1.43410368 2.47392642 2.87260072 2.6875 4.3125 C2.81511719 5.11300781 2.94273438 5.91351563 3.07421875 6.73828125 C3 9 3 9 1.71875 10.71875 C-0.66268734 12.49400329 -3.16742336 13.18170008 -6 14 C-5.67 12.02 -5.34 10.04 -5 8 C-3.35 7.67 -1.7 7.34 0 7 C0 4.69 0 2.38 0 0 Z " fill="#90E490" transform="translate(24,8)"/>
<path d="M0 0 C1 3 1 3 0.22265625 5.04296875 C-0.16019531 5.75066406 -0.54304688 6.45835938 -0.9375 7.1875 C-1.31777344 7.90292969 -1.69804687 8.61835938 -2.08984375 9.35546875 C-2.54037109 10.16951172 -2.54037109 10.16951172 -3 11 C-2.01 11.33 -1.02 11.66 0 12 C-1.98 12.33 -3.96 12.66 -6 13 C-6.62645012 4.85614849 -6.62645012 4.85614849 -4.125 1.4375 C-2 0 -2 0 0 0 Z " fill="#9CE69C" transform="translate(19,17)"/>
<path d="M0 0 C0.66 0 1.32 0 2 0 C4.45153075 4.73898266 4.23154206 9.12062333 4.125 14.3125 C4.11597656 15.14845703 4.10695313 15.98441406 4.09765625 16.84570312 C4.07420989 18.89725969 4.03834266 20.94866777 4 23 C3.67 23 3.34 23 3 23 C2.49187886 20.48056604 1.99335466 17.95983127 1.5 15.4375 C1.35691406 14.73302734 1.21382812 14.02855469 1.06640625 13.30273438 C0.19125075 8.78109762 -0.14523405 4.60512972 0 0 Z " fill="#A1EEA1" transform="translate(38,81)"/>
<path d="M0 0 C1.65 0 3.3 0 5 0 C4.67 1.32 4.34 2.64 4 4 C3.34 4 2.68 4 2 4 C2.33 5.32 2.66 6.64 3 8 C1.68 8.99 0.36 9.98 -1 11 C-1.66 10.67 -2.32 10.34 -3 10 C-3 9.34 -3 8.68 -3 8 C-4.32 7.67 -5.64 7.34 -7 7 C-6.05125 6.54625 -5.1025 6.0925 -4.125 5.625 C-0.99686321 4.19761746 -0.99686321 4.19761746 1 2 C0.67 1.34 0.34 0.68 0 0 Z " fill="#A4DAA4" transform="translate(58,121)"/>
<path d="M0 0 C1.74713967 5.24141902 1.18199754 9.02989449 -1 14 C-1.68679942 16.32748694 -2.35761043 18.65986656 -3 21 C-3.99 21 -4.98 21 -6 21 C-7.28317892 17.15046324 -7.06643637 14.05261865 -7 10 C-6.67 10 -6.34 10 -6 10 C-5.67 12.31 -5.34 14.62 -5 17 C-4.67 17 -4.34 17 -4 17 C-3.79503906 15.94039062 -3.59007812 14.88078125 -3.37890625 13.7890625 C-3.10692334 12.40101178 -2.83477956 11.01299256 -2.5625 9.625 C-2.42779297 8.92632812 -2.29308594 8.22765625 -2.15429688 7.5078125 C-1.11328125 2.2265625 -1.11328125 2.2265625 0 0 Z " fill="#B8DEB8" transform="translate(51,83)"/>
<path d="M0 0 C0.99 0.33 1.98 0.66 3 1 C2.67 5.29 2.34 9.58 2 14 C1.34 13.34 0.68 12.68 0 12 C0 10.68 0 9.36 0 8 C-0.99 10.64 -1.98 13.28 -3 16 C-4.98 16 -6.96 16 -9 16 C-9 15.67 -9 15.34 -9 15 C-7.35 15 -5.7 15 -4 15 C-3.51787786 13.43840941 -3.03944127 11.87568072 -2.5625 10.3125 C-2.29566406 9.44238281 -2.02882813 8.57226562 -1.75390625 7.67578125 C-1.03655471 5.12974079 -0.482459 2.5996577 0 0 Z " fill="#79B3AC" transform="translate(421,45)"/>
<path d="M0 0 C0.33 0 0.66 0 1 0 C1.02697137 2.60423592 1.04682489 5.20819244 1.0625 7.8125 C1.07087891 8.55048828 1.07925781 9.28847656 1.08789062 10.04882812 C1.10259828 13.29922068 1.03531702 15.89404895 0 19 C0.28466591 20.99266138 0.57160431 22.98621276 0.94140625 24.96484375 C1.0136373 27.47366879 0.25730193 28.86306478 -1 31 C-1.06058594 30.34773438 -1.12117188 29.69546875 -1.18359375 29.0234375 C-1.63519991 24.31283783 -2.14195039 19.65798362 -3 15 C-2.01 15 -1.02 15 0 15 C0 10.05 0 5.1 0 0 Z " fill="#A6C4A6" transform="translate(45,16)"/>
<path d="M0 0 C1.32 0.33 2.64 0.66 4 1 C3.52797514 5.24822374 1.03344482 7.19989709 -2 10 C-2.66 9.67 -3.32 9.34 -4 9 C-4 6.36 -4 3.72 -4 1 C-3.34 1.66 -2.68 2.32 -2 3 C-1.34 2.01 -0.68 1.02 0 0 Z " fill="#9ED99E" transform="translate(30,8)"/>
<path d="M0 0 C0.33 0.66 0.66 1.32 1 2 C1.66 2.33 2.32 2.66 3 3 C3 4.65 3 6.3 3 8 C3.33 5.36 3.66 2.72 4 0 C4.33 0 4.66 0 5 0 C5 6.6 5 13.2 5 20 C4.67 20 4.34 20 4 20 C3.87625 18.865625 3.7525 17.73125 3.625 16.5625 C3.41875 15.386875 3.2125 14.21125 3 13 C2.34 12.67 1.68 12.34 1 12 C0.5859375 9.27734375 0.5859375 9.27734375 0.375 5.9375 C0.30023438 4.83277344 0.22546875 3.72804687 0.1484375 2.58984375 C0.09945312 1.73519531 0.05046875 0.88054688 0 0 Z " fill="#A6DCA6" transform="translate(88,33)"/>
<path d="M0 0 C0.66 0 1.32 0 2 0 C1.67 3.63 1.34 7.26 1 11 C-3.29 10.34 -7.58 9.68 -12 9 C-12 8.67 -12 8.34 -12 8 C-8.7 7.67 -5.4 7.34 -2 7 C-1.34 4.69 -0.68 2.38 0 0 Z " fill="#8FFC8F" transform="translate(63,97)"/>
<path d="M0 0 C0.66 0.66 1.32 1.32 2 2 C1.68404492 3.67004829 1.34820041 5.33637583 1 7 C1.37722015 9.72502965 1.37722015 9.72502965 2 12 C-2.22797927 8.91709845 -2.22797927 8.91709845 -4 7 C-4.375 4.1875 -4.375 4.1875 -4 2 C-2.68 1.34 -1.36 0.68 0 0 Z M0 2 C1 5 1 5 1 5 Z " fill="#A3E0A3" transform="translate(41,17)"/>
<path d="M0 0 C3.81329491 2.54219661 4.35531425 4.78102352 6 9 C6.391875 9.969375 6.78375 10.93875 7.1875 11.9375 C7.455625 12.618125 7.72375 13.29875 8 14 C7.01 14 6.02 14 5 14 C5 13.34 5 12.68 5 12 C4.34 12 3.68 12 3 12 C2.30314502 10.3789897 1.61777139 8.75303934 0.9375 7.125 C0.55464844 6.22007813 0.17179687 5.31515625 -0.22265625 4.3828125 C-1 2 -1 2 0 0 Z " fill="#95F495" transform="translate(21,80)"/>
<path d="M0 0 C1.26237731 2.52475462 1.09856404 4.31200466 1.0625 7.125 C1.05347656 8.03507812 1.04445312 8.94515625 1.03515625 9.8828125 C1.02355469 10.58148438 1.01195312 11.28015625 1 12 C1.66 12 2.32 12 3 12 C2.67 9.69 2.34 7.38 2 5 C3.88391785 8.26545761 4.49287967 11.28111761 5 15 C4.34 15 3.68 15 3 15 C2.01 16.485 2.01 16.485 1 18 C-0.82510171 14.10452599 -1.2455793 11.0373082 -1.1875 6.75 C-1.18105469 5.69296875 -1.17460938 4.6359375 -1.16796875 3.546875 C-1 1 -1 1 0 0 Z " fill="#B3E1B3" transform="translate(49,34)"/>
<path d="M0 0 C1.32 0.66 2.64 1.32 4 2 C3.01 2.33 2.02 2.66 1 3 C1.33 4.65 1.66 6.3 2 8 C4.97 8.495 4.97 8.495 8 9 C7.34 9.66 6.68 10.32 6 11 C3.0574037 10.69347955 0.65457692 10.32728846 -2 9 C-2.125 5.625 -2.125 5.625 -2 2 C-1.34 1.34 -0.68 0.68 0 0 Z " fill="#8CF88C" transform="translate(26,69)"/>
<path d="M0 0 C0.33 0.66 0.66 1.32 1 2 C2.64363134 2.72159424 4.31050386 3.39351421 6 4 C5.67 5.32 5.34 6.64 5 8 C3.68 7.67 2.36 7.34 1 7 C1 6.34 1 5.68 1 5 C0.01 5.33 -0.98 5.66 -2 6 C-2.33 4.68 -2.66 3.36 -3 2 C-2.01 1.34 -1.02 0.68 0 0 Z " fill="#9CE19C" transform="translate(29,21)"/>
<path d="M0 0 C4.54805635 -0.17835515 7.8794254 0.00214565 12 2 C12 2.66 12 3.32 12 4 C7.83861737 4.08159574 4.0527516 3.98248524 0 3 C0 2.01 0 1.02 0 0 Z " fill="#8AEB8A" transform="translate(62,59)"/>
<path d="M0 0 C3.13269705 3.13269705 3.05494397 5.97328423 3.0625 10.25 C3.041875 11.4875 3.02125 12.725 3 14 C2.34 14 1.68 14 1 14 C0.67 11.03 0.34 8.06 0 5 C-0.99 5 -1.98 5 -3 5 C-1.125 1.125 -1.125 1.125 0 0 Z " fill="#8BF68B" transform="translate(41,49)"/>
<path d="M0 0 C1.32 0.66 2.64 1.32 4 2 C4 2.66 4 3.32 4 4 C5.65 4 7.3 4 9 4 C9 4.33 9 4.66 9 5 C7.35 5 5.7 5 4 5 C4.33 5.99 4.66 6.98 5 8 C2.13275314 7.42655063 1.1385485 7.1385485 -1 5 C-0.625 2.375 -0.625 2.375 0 0 Z " fill="#A1E2A1" transform="translate(25,49)"/>
<path d="M0 0 C0.33 1.32 0.66 2.64 1 4 C-2.3 4.33 -5.6 4.66 -9 5 C-6.40100021 -0.19799959 -5.44050551 -0.1431712 0 0 Z " fill="#91EA91" transform="translate(60,0)"/>
<path d="M0 0 C0.33 0.99 0.66 1.98 1 3 C2.65 3 4.3 3 6 3 C6 3.33 6 3.66 6 4 C4.35 4 2.7 4 1 4 C0.67 5.32 0.34 6.64 0 8 C-1.32 7.67 -2.64 7.34 -4 7 C-3.6875 4.625 -3.6875 4.625 -3 2 C-2.01 1.34 -1.02 0.68 0 0 Z " fill="#87D687" transform="translate(61,59)"/>
<path d="M0 0 C0.33 1.32 0.66 2.64 1 4 C1.99 4 2.98 4 4 4 C3.46930939 7.82097239 2.50298434 10.06171403 0 13 C0.33 11.02 0.66 9.04 1 7 C0.34 7 -0.32 7 -1 7 C-1 7.99 -1 8.98 -1 10 C-1.99 10 -2.98 10 -4 10 C-3.71125 9.46375 -3.4225 8.9275 -3.125 8.375 C-1.83288192 5.64719516 -0.91441408 2.87387282 0 0 Z " fill="#ABDAAB" transform="translate(40,64)"/>
<path d="M0 0 C2.475 0.99 2.475 0.99 5 2 C5.33 4.64 5.66 7.28 6 10 C5.01 10.495 5.01 10.495 4 11 C4 9.68 4 8.36 4 7 C3.34 7 2.68 7 2 7 C1.01 5.02 0.02 3.04 -1 1 C-0.67 0.67 -0.34 0.34 0 0 Z " fill="#94EE94" transform="translate(74,18)"/>
<path d="M0 0 C0.66 0 1.32 0 2 0 C2.33 4.95 2.66 9.9 3 15 C2.01 15.495 2.01 15.495 1 16 C-0.06723961 12.53777385 -0.10173486 9.35960734 -0.0625 5.75 C-0.04896484 4.13351563 -0.04896484 4.13351563 -0.03515625 2.484375 C-0.02355469 1.66453125 -0.01195312 0.8446875 0 0 Z " fill="#90FC90" transform="translate(49,54)"/>
<path d="M0 0 C0.99 0 1.98 0 3 0 C3.390625 5.95703125 3.390625 5.95703125 3 8 C1.68 8.99 0.36 9.98 -1 11 C-0.67 7.37 -0.34 3.74 0 0 Z " fill="#96EF96" transform="translate(89,45)"/>
<path d="M0 0 C2.64 0.33 5.28 0.66 8 1 C7.67 2.32 7.34 3.64 7 5 C4.69 4.67 2.38 4.34 0 4 C0 2.68 0 1.36 0 0 Z " fill="#96DE96" transform="translate(68,27)"/>
<path d="M0 0 C0.33 1.32 0.66 2.64 1 4 C1.66 4 2.32 4 3 4 C2.3125 6.4375 2.3125 6.4375 1 9 C-1.625 9.8125 -1.625 9.8125 -4 10 C-4 9.01 -4 8.02 -4 7 C-3 6 -2 5 -1 4 C-0.28552357 1.89667109 -0.28552357 1.89667109 0 0 Z " fill="#91DB91" transform="translate(64,118)"/>
<path d="M0 0 C2.96404505 2.80804268 5.44499019 5.18315774 7 9 C6.01 9.33 5.02 9.66 4 10 C0.77686187 7.19275066 -0.64998321 5.31687378 -1 1 C-0.67 0.67 -0.34 0.34 0 0 Z " fill="#97F597" transform="translate(9,64)"/>
<path d="M0 0 C0.598125 0.350625 1.19625 0.70125 1.8125 1.0625 C1.4825 2.7125 1.1525 4.3625 0.8125 6.0625 C-1.80937494 5.01375002 -2.98121361 4.41318687 -4.4375 1.9375 C-4.685 1.31875 -4.9325 0.7 -5.1875 0.0625 C-2.1875 -0.9375 -2.1875 -0.9375 0 0 Z " fill="#A5DFA5" transform="translate(34.1875,60.9375)"/>
<path d="M0 0 C1.37432457 3.81756824 0.67975039 7.07255329 0 11 C-0.99 11 -1.98 11 -3 11 C-2.25 3.375 -2.25 3.375 0 0 Z " fill="#8AED8A" transform="translate(54,80)"/>
<path d="M0 0 C0 3.10551666 -0.5393715 4.35261084 -2 7 C-2.99 5.68 -3.98 4.36 -5 3 C-4.34 3 -3.68 3 -3 3 C-3 2.34 -3 1.68 -3 1 C-4.98 1.33 -6.96 1.66 -9 2 C-6.98558063 -2.02883874 -3.72407517 -0.90585612 0 0 Z " fill="#9FCE9F" transform="translate(68,68)"/>
<path d="M0 0 C0.99 0 1.98 0 3 0 C4 3 4 3 3.3125 5.125 C2 7 2 7 -0.125 7.75 C-1.053125 7.87375 -1.053125 7.87375 -2 8 C-1.33333333 5.33333333 -0.66666667 2.66666667 0 0 Z " fill="#98D398" transform="translate(66,49)"/>
<path d="M0 0 C1.98 0.66 3.96 1.32 6 2 C6 3.98 6 5.96 6 8 C4.68 7.67 3.36 7.34 2 7 C2.33 5.35 2.66 3.7 3 2 C1.68 1.67 0.36 1.34 -1 1 C-0.67 0.67 -0.34 0.34 0 0 Z " fill="#9BED9B" transform="translate(29,40)"/>
<path d="M0 0 C0.66 0 1.32 0 2 0 C2 4.29 2 8.58 2 13 C-0.46278801 10.53721199 -0.99771255 8.29323018 -2 5 C-1.34 5 -0.68 5 0 5 C0 3.35 0 1.7 0 0 Z " fill="#8BF78B" transform="translate(43,18)"/>
<path d="M0 0 C0 0.66 0 1.32 0 2 C-0.99 2 -1.98 2 -3 2 C-2.67 2.99 -2.34 3.98 -2 5 C-4.375 4.75 -4.375 4.75 -7 4 C-8.3125 1.9375 -8.3125 1.9375 -9 0 C-5.67465243 -1.10844919 -3.37817425 -0.84454356 0 0 Z " fill="#8FDD8F" transform="translate(43,128)"/>
<path d="M0 0 C0.928125 0.0825 1.85625 0.165 2.8125 0.25 C2.5 2.1875 2.5 2.1875 1.8125 4.25 C-1.47726808 5.34658936 -2.90053767 5.04953138 -6.1875 4.25 C-4.36434338 1.00883268 -3.82500054 0.30000004 0 0 Z " fill="#88E988" transform="translate(53.1875,127.75)"/>
<path d="M0 0 C2.51954654 2.25890379 3.87332733 4.417897 5.25 7.5 C5.60578125 8.2734375 5.9615625 9.046875 6.328125 9.84375 C7 12 7 12 6 15 C4.98965502 13.25595212 3.99207578 11.50450439 3 9.75 C2.1646875 8.28820312 2.1646875 8.28820312 1.3125 6.796875 C0 4 0 4 0 0 Z " fill="#A5C3A5" transform="translate(24,82)"/>
<path d="M0 0 C1.46534385 3.80989402 0.55203911 6.3241179 -1 10 C-1.99 10.495 -1.99 10.495 -3 11 C-3.36923077 4.6 -3.36923077 4.6 -1.5 1.5625 C-1.005 1.046875 -0.51 0.53125 0 0 Z " fill="#8DF08D" transform="translate(14,33)"/>
<path d="M0 0 C0 0.66 0 1.32 0 2 C1.65 2.33 3.3 2.66 5 3 C2.33333333 4.33333333 -0.33333333 5.66666667 -3 7 C-3.33 6.01 -3.66 5.02 -4 4 C-4.66 3.67 -5.32 3.34 -6 3 C-2.25 0 -2.25 0 0 0 Z " fill="#A1DAA1" transform="translate(33,0)"/>
<path d="M0 0 C0.66 0.33 1.32 0.66 2 1 C1.67 2.65 1.34 4.3 1 6 C-0.65 6.33 -2.3 6.66 -4 7 C-3.39816251 4.97954558 -2.72693904 2.97888961 -2 1 C-1.34 0.67 -0.68 0.34 0 0 Z " fill="#96E996" transform="translate(72,79)"/>
<path d="M0 0 C0.66 0.33 1.32 0.66 2 1 C0.74057614 2.19959375 -0.53295286 3.38439443 -1.8125 4.5625 C-2.87404297 5.55443359 -2.87404297 5.55443359 -3.95703125 6.56640625 C-4.63121094 7.03949219 -5.30539062 7.51257812 -6 8 C-6.99 7.67 -7.98 7.34 -9 7 C-8.67 5.68 -8.34 4.36 -8 3 C-8 3.99 -8 4.98 -8 6 C-5.36 4.02 -2.72 2.04 0 0 Z " fill="#7ED1C6" transform="translate(403,45)"/>
<path d="M0 0 C1.32 0 2.64 0 4 0 C4 1.32 4 2.64 4 4 C1.36 4.99 -1.28 5.98 -4 7 C-2.79618552 4.50638429 -1.54571278 2.31856917 0 0 Z " fill="#8FC88F" transform="translate(21,27)"/>
<path d="M0 0 C2.31 0 4.62 0 7 0 C6.34 1.65 5.68 3.3 5 5 C3.68 5 2.36 5 1 5 C0.67 3.35 0.34 1.7 0 0 Z " fill="#7BCC7B" transform="translate(25,59)"/>
<path d="M0 0 C1.5 1.375 1.5 1.375 3 3 C3 3.66 3 4.32 3 5 C2.34 5 1.68 5 1 5 C0.67 5.99 0.34 6.98 0 8 C-1.98 4.535 -1.98 4.535 -4 1 C-3.34 1 -2.68 1 -2 1 C-2 1.66 -2 2.32 -2 3 C-1.34 3 -0.68 3 0 3 C0 2.01 0 1.02 0 0 Z " fill="#ABE1AB" transform="translate(85,18)"/>
<path d="M0 0 C1.485 0.99 1.485 0.99 3 2 C3.1875 5.625 3.1875 5.625 3 9 C2.01 8.67 1.02 8.34 0 8 C0 5.36 0 2.72 0 0 Z " fill="#8CEE8C" transform="translate(78,49)"/>
<path d="M0 0 C0.66 0.33 1.32 0.66 2 1 C-0.97 3.97 -3.94 6.94 -7 10 C-7 6.04435836 -5.59478606 4.89133304 -3 2 C-2.01 1.34 -1.02 0.68 0 0 Z " fill="#5BD0DF" transform="translate(587,47)"/>
<path d="M0 0 C0 3 0 6 0 9 C-0.99 9.495 -0.99 9.495 -2 10 C-2.66 9.34 -3.32 8.68 -4 8 C-4 4.09161134 -2.49432124 2.88405893 0 0 Z " fill="#A9E3A9" transform="translate(76,72)"/>
<path d="M0 0 C-0.99 0.495 -0.99 0.495 -2 1 C-2 1.66 -2 2.32 -2 3 C-4.64 2.34 -7.28 1.68 -10 1 C-6.1496895 -1.56687367 -4.41430237 -0.83288724 0 0 Z " fill="#93F393" transform="translate(28,61)"/>
<path d="M0 0 C2.02045442 0.60183749 4.02111039 1.27306096 6 2 C6.33 2.66 6.66 3.32 7 4 C6.01 4.33 5.02 4.66 4 5 C3.01 5.495 3.01 5.495 2 6 C0.68 5.01 -0.64 4.02 -2 3 C-1.01 2.67 -0.02 2.34 1 2 C0.67 1.34 0.34 0.68 0 0 Z " fill="#99D399" transform="translate(70,15)"/>
<path d="M0 0 C1.5625 1.8125 1.5625 1.8125 3 4 C2.67 4.99 2.34 5.98 2 7 C1.34 6.34 0.68 5.68 0 5 C-0.33 6.32 -0.66 7.64 -1 9 C-2.0625 7.1875 -2.0625 7.1875 -3 5 C-2.67 4.01 -2.34 3.02 -2 2 C-1.34 2.33 -0.68 2.66 0 3 C0 2.01 0 1.02 0 0 Z " fill="#B1DCB1" transform="translate(5,53)"/>
<path d="M0 0 C1.24546405 2.49092811 0.7767578 3.41080733 0 6 C0.66 6 1.32 6 2 6 C2 5.01 2 4.02 2 3 C2.66 3 3.32 3 4 3 C3.67 4.65 3.34 6.3 3 8 C1.68 7.67 0.36 7.34 -1 7 C-1.04254356 5.00045254 -1.04080783 2.99958364 -1 1 C-0.67 0.67 -0.34 0.34 0 0 Z " fill="#B6D4B6" transform="translate(58,40)"/>
<path d="M0 0 C4.21912747 0.4794463 6.79663178 1.16625119 10 4 C8.375 4.6875 8.375 4.6875 6 5 C2.75 3.5625 2.75 3.5625 0 2 C0 1.34 0 0.68 0 0 Z " fill="#8BF68B" transform="translate(68,41)"/>
<path d="M0 0 C0.99 0.33 1.98 0.66 3 1 C2.0479279 2.00596297 1.08812654 3.00461563 0.125 4 C-0.40867187 4.556875 -0.94234375 5.11375 -1.4921875 5.6875 C-3 7 -3 7 -5 7 C-3.70700306 4.11562221 -2.34058637 2.12780579 0 0 Z " fill="#51E6C2" transform="translate(312,78)"/>
<path d="M0 0 C0 1.65 0 3.3 0 5 C-1.65 5.33 -3.3 5.66 -5 6 C-4.6875 4.125 -4.6875 4.125 -4 2 C-1 0 -1 0 0 0 Z " fill="#9AEE9A" transform="translate(82,67)"/>
<path d="M0 0 C0.99 0.33 1.98 0.66 3 1 C3 3.97 3 6.94 3 10 C2.34 9.67 1.68 9.34 1 9 C1.020625 8.2575 1.04125 7.515 1.0625 6.75 C1.00671312 4.29537721 0.6930096 2.33890739 0 0 Z " fill="#8BF78B" transform="translate(89,32)"/>
<path d="M0 0 C1.65 0 3.3 0 5 0 C5.33 0.99 5.66 1.98 6 3 C4.35 3.33 2.7 3.66 1 4 C0.67 2.68 0.34 1.36 0 0 Z " fill="#90DA90" transform="translate(53,11)"/>
<path d="M0 0 C0.66 0.33 1.32 0.66 2 1 C2.1875 3.875 2.1875 3.875 2 7 C1.01 7.66 0.02 8.32 -1 9 C-2.60031344 5.79937313 -1.03173691 3.27728194 0 0 Z " fill="#8CF98C" transform="translate(67,70)"/>
<path d="M0 0 C0.97608217 2.92824652 1.08226668 4.95613276 1 8 C0.01 8.495 0.01 8.495 -1 9 C-2.1875 6.75 -2.1875 6.75 -3 4 C-1.625 1.6875 -1.625 1.6875 0 0 Z " fill="#AAE3AA" transform="translate(83,62)"/>
<path d="M0 0 C0.66 0.66 1.32 1.32 2 2 C2.99 1.34 3.98 0.68 5 0 C4.67 1.98 4.34 3.96 4 6 C3.34 6 2.68 6 2 6 C2 5.34 2 4.68 2 4 C1.01 4.33 0.02 4.66 -1 5 C-0.67 3.35 -0.34 1.7 0 0 Z " fill="#AAD7AA" transform="translate(87,53)"/>
<path d="M0 0 C0.66 0 1.32 0 2 0 C3.38232443 1.62626404 4.71937515 3.2925002 6 5 C5.67 5.66 5.34 6.32 5 7 C2.5 5.75 2.5 5.75 0 4 C0 2.68 0 1.36 0 0 Z " fill="#9DD59D" transform="translate(18,75)"/>
<path d="M0 0 C1.485 0.99 1.485 0.99 3 2 C3.1875 5.625 3.1875 5.625 3 9 C2.34 9 1.68 9 1 9 C0.67 6.03 0.34 3.06 0 0 Z " fill="#8FFC8F" transform="translate(42,3)"/>
<path d="M0 0 C0.33 0.99 0.66 1.98 1 3 C1.99 3.33 2.98 3.66 4 4 C3.67 4.66 3.34 5.32 3 6 C1.02 6 -0.96 6 -3 6 C-2.01 4.02 -1.02 2.04 0 0 Z " fill="#87EC87" transform="translate(44,101)"/>
<path d="M0 0 C0.66 0.33 1.32 0.66 2 1 C1.814375 1.61875 1.62875 2.2375 1.4375 2.875 C0.76313824 5.04160178 0.76313824 5.04160178 2 7 C0.68 6.67 -0.64 6.34 -2 6 C-1.125 1.125 -1.125 1.125 0 0 Z " fill="#B6E1B6" transform="translate(59,60)"/>
<path d="M0 0 C1.65 0 3.3 0 5 0 C4.67 1.32 4.34 2.64 4 4 C3.01 4 2.02 4 1 4 C0.67 2.68 0.34 1.36 0 0 Z " fill="#8CDD8C" transform="translate(29,54)"/>
</svg>
